<svg xmlns="http://www.w3.org/2000/svg" width="1299.2" height="276.224" viewBox="0 0 1299.2 276.224">
  <defs>
    <style>
      .cls-1 {
        fill: #fff84d;
        stroke-linecap: round;
        stroke-miterlimit: 10;
      }

      .cls-2, .cls-3 {
        stroke: none;
      }

      .cls-3 {
        fill: rgba(188,76,76,0);
      }
    </style>
  </defs>
  <g id="Exclusion_2" data-name="Exclusion 2" class="cls-1" transform="translate(-105.847 535.737)">
    <path class="cls-2" d="M746.248-259.513a90.244,90.244,0,0,1-17.9-1.687,47.1,47.1,0,0,1-14.3-5.176,26.833,26.833,0,0,1-9.4-8.888,23.67,23.67,0,0,1-3.4-12.827,21.457,21.457,0,0,1,3.85-12.432,33.514,33.514,0,0,1,11.55-9.845v-.9a26.374,26.374,0,0,1-7.1-7.426c-1.878-2.914-2.854-6.737-2.9-11.362l27.54-42.463a14.666,14.666,0,0,0,3.159,5.556,14.536,14.536,0,0,0,4.775,3.461,14.142,14.142,0,0,0,5.726,1.153,14.326,14.326,0,0,0,5.75-1.153,15,15,0,0,0,4.85-3.461,14.7,14.7,0,0,0,3.3-5.765,26.855,26.855,0,0,0,1.1-8.073,25.183,25.183,0,0,0-1.1-7.763,15.273,15.273,0,0,0-3.3-5.738,14.292,14.292,0,0,0-7.3-4.362l12.965-19.991.052.019.011,0,.027.01.036.013.01,0h40.2v24.3h-20a31.337,31.337,0,0,1,3,6.413,24.476,24.476,0,0,1,1.4,8.214,39.867,39.867,0,0,1-3.2,16.652,32.79,32.79,0,0,1-8.7,11.589,36.255,36.255,0,0,1-13,6.863,56.017,56.017,0,0,1-16.1,2.251,45.846,45.846,0,0,1-13.6-2.251,14.822,14.822,0,0,0-3.3,3.6,9.01,9.01,0,0,0-1.1,4.725,7.172,7.172,0,0,0,1,3.854,6.981,6.981,0,0,0,3,2.56c2.654,1.269,6.96,1.913,12.8,1.913h18.4a81.974,81.974,0,0,1,17.275,1.632,39.171,39.171,0,0,1,12.625,4.894,20.651,20.651,0,0,1,7.725,8.664,29.961,29.961,0,0,1,2.576,12.939,33.644,33.644,0,0,1-1.05,8.438,32.224,32.224,0,0,1-3.15,7.763,38.781,38.781,0,0,1-11.8,12.714,60.867,60.867,0,0,1-18.6,8.326A91.991,91.991,0,0,1,746.248-259.513Zm-14-44.555a19.662,19.662,0,0,0-5.4,5.289,10.749,10.749,0,0,0-1.6,5.738,9.33,9.33,0,0,0,1.675,5.513,12.528,12.528,0,0,0,5.025,3.938c4.443,2.09,10.667,3.15,18.5,3.15A56.543,56.543,0,0,0,761.3-281.4a32.18,32.18,0,0,0,8.55-2.869,16.28,16.28,0,0,0,5.55-4.332,8.63,8.63,0,0,0,1.85-5.344,8.236,8.236,0,0,0-1.1-4.444,6.259,6.259,0,0,0-3.3-2.532c-2.92-1.045-7.294-1.575-13-1.575h-12.4c-3.588,0-6.582-.113-8.9-.337a30.068,30.068,0,0,1-6.3-1.238Zm587.2,40.73a56.424,56.424,0,0,1-8.2-.562,37.811,37.811,0,0,1-7-1.688l5.2-25.2a23.232,23.232,0,0,0,7.8,1.35,26.816,26.816,0,0,0,7.675-1.013,16.5,16.5,0,0,0,5.825-3.037,24.375,24.375,0,0,0,7.3-10.577l2-5.85-43-108.688h29.2l16.6,47.931c1.857,5.226,3.607,10.715,5.2,16.314,1.6,5.627,3.214,11.418,4.8,17.214h.8c1.325-5.52,2.806-11.16,4.4-16.764,1.6-5.647,3.152-11.287,4.6-16.764l14.6-47.93h27.8l-39.2,112.738a130.813,130.813,0,0,1-7.8,18.565,52.977,52.977,0,0,1-9.6,13.276,36.087,36.087,0,0,1-12.5,7.988A46.482,46.482,0,0,1,1319.448-263.338Zm-254.2-2.251V-418.606h24l2.2,11.251h.6a52.754,52.754,0,0,1,13.8-10.014,34.88,34.88,0,0,1,15.8-3.937,37.017,37.017,0,0,1,8.75,1.012,32.357,32.357,0,0,1,7.85,3.038,37.168,37.168,0,0,1,12.6,11.477,55,55,0,0,1,7.9,17.889,93.7,93.7,0,0,1,2.7,23.29,83.39,83.39,0,0,1-3.6,25.54,61.892,61.892,0,0,1-9.6,18.9,42.363,42.363,0,0,1-13.7,11.814,34.285,34.285,0,0,1-16.1,4.05,28.692,28.692,0,0,1-12.9-3.037,38.664,38.664,0,0,1-11.5-9.113h-.8l1.4,18.227v32.628h-29.4Zm47.8-128.714a18.878,18.878,0,0,0-9.3,2.588,35.47,35.47,0,0,0-9.1,7.762v45.23a25.716,25.716,0,0,0,8.7,5.739,23.9,23.9,0,0,0,8.3,1.688,15.679,15.679,0,0,0,7.7-1.941,19.653,19.653,0,0,0,6.3-5.823,27.6,27.6,0,0,0,4.2-10.154,69.732,69.732,0,0,0,1.4-14.936,67.921,67.921,0,0,0-1.138-13.192,29.574,29.574,0,0,0-3.413-9.423,15.365,15.365,0,0,0-5.687-5.654A16.285,16.285,0,0,0,1113.048-394.3Zm-137.4,90.01a34.174,34.174,0,0,1-13.6-2.588,29.415,29.415,0,0,1-10.2-7.2,33.265,33.265,0,0,1-6.5-10.688,37.382,37.382,0,0,1-2.3-13.277,36.23,36.23,0,0,1,3.6-16.539,27.591,27.591,0,0,1,4.676-6.554,35.433,35.433,0,0,1,6.826-5.485c5.236-3.283,12.066-5.971,20.3-7.989a175.757,175.757,0,0,1,30-4.163,20,20,0,0,0-1.875-6.807,15.763,15.763,0,0,0-4.025-5.12,16.9,16.9,0,0,0-6.376-3.206,33.486,33.486,0,0,0-8.925-1.069,40.293,40.293,0,0,0-14.5,2.813,122.1,122.1,0,0,0-15.7,7.538l-10.4-21.6a112.017,112.017,0,0,1,21.9-10.8,70.081,70.081,0,0,1,11.974-3.206,73.073,73.073,0,0,1,12.525-1.069,52.654,52.654,0,0,1,18.6,3.094,38.583,38.583,0,0,1,14.2,9.282,39.13,39.13,0,0,1,9,15.7,74.818,74.818,0,0,1,3,22.333v63.907h-24l-2.2-12.6h-.8a77.965,77.965,0,0,1-16.6,10.914,44,44,0,0,1-9.15,3.291A41.261,41.261,0,0,1,975.648-304.294Zm32.8-54.681a123.453,123.453,0,0,0-18.2,2.251,42.189,42.189,0,0,0-11.4,3.938,14.537,14.537,0,0,0-5.9,5.513,14.066,14.066,0,0,0-1.7,6.751,11.116,11.116,0,0,0,.925,4.7,8.163,8.163,0,0,0,2.775,3.292c2.454,1.717,5.852,2.587,10.1,2.587a26.456,26.456,0,0,0,12.4-3.038,57.953,57.953,0,0,0,11-7.538Zm270.4,51.983h-29.4v-64.582a51.86,51.86,0,0,0-.8-9.732,20.1,20.1,0,0,0-2.4-6.7,9.964,9.964,0,0,0-4.449-3.882,16.837,16.837,0,0,0-6.95-1.294,18.918,18.918,0,0,0-10.5,2.926,50.331,50.331,0,0,0-9.7,8.776v74.483h-29.4V-464.737h29.4v38.7l-1.6,21.378h.6a60.37,60.37,0,0,1,13.6-11.589,31.3,31.3,0,0,1,8.85-3.8,41.917,41.917,0,0,1,10.551-1.266,32.494,32.494,0,0,1,14.524,3.038,24.745,24.745,0,0,1,9.976,9.112,46.369,46.369,0,0,1,5.775,14.4,84.654,84.654,0,0,1,1.925,18.9v68.86Zm-415.4,0h-29.4V-418.606h24l2.4,24.3h.6a65.077,65.077,0,0,1,8.15-11.955,45.238,45.238,0,0,1,9.65-8.411,42.591,42.591,0,0,1,10.8-4.978,40.8,40.8,0,0,1,11.6-1.66,41.8,41.8,0,0,1,10.7,1.125,45.059,45.059,0,0,1,8.5,3.375l-6,27.679a73.083,73.083,0,0,0-8.3-2.363,46.07,46.07,0,0,0-9.3-.788,28.646,28.646,0,0,0-9.124,1.519,36.849,36.849,0,0,0-8.976,4.557,34.3,34.3,0,0,0-8.275,8.327,65.992,65.992,0,0,0-7.025,12.826v58.056Zm-162.094-49.55v0c-.07-.822-.105-1.678-.105-2.546a21.464,21.464,0,0,1,3.849-12.432,33.515,33.515,0,0,1,11.551-9.845v-.9a26.391,26.391,0,0,1-7.1-7.426c-1.924-2.986-2.9-6.923-2.9-11.7a22.171,22.171,0,0,1,3.3-11.251,34.1,34.1,0,0,1,8.5-9.676v-.9a32.889,32.889,0,0,1-9.2-11.364,37.015,37.015,0,0,1-3.8-17.214,41.777,41.777,0,0,1,3.5-17.664,37.508,37.508,0,0,1,9.3-12.6,39.516,39.516,0,0,1,13.5-7.651,50.437,50.437,0,0,1,16.1-2.587,46.716,46.716,0,0,1,16.4,2.7h25.511l-27.028,40.681c.076-.907.116-1.875.116-2.876a25.165,25.165,0,0,0-1.1-7.764,15.269,15.269,0,0,0-3.3-5.738,15.023,15.023,0,0,0-4.85-3.543,14.028,14.028,0,0,0-5.749-1.182,13.861,13.861,0,0,0-5.726,1.182,14.581,14.581,0,0,0-4.775,3.543,15.358,15.358,0,0,0-3.225,5.738,25.7,25.7,0,0,0-1.076,7.764,27.4,27.4,0,0,0,1.076,8.073,14.775,14.775,0,0,0,3.225,5.766,14.527,14.527,0,0,0,4.775,3.46,14.15,14.15,0,0,0,5.726,1.153,14.461,14.461,0,0,0,5.135-.9l-13.337,20.074a53.517,53.517,0,0,1-5.4-1.394,14.832,14.832,0,0,0-3.3,3.6,9.015,9.015,0,0,0-1.1,4.725,6.7,6.7,0,0,0,1.893,4.967l-30.386,45.735Zm-70.505-18.751a47.336,47.336,0,0,1-18.9-3.937,49.618,49.618,0,0,1-16.2-11.364,49.78,49.78,0,0,1-6.376-8.3,60.784,60.784,0,0,1-4.925-10.042,60.754,60.754,0,0,1-3.15-11.672,79.606,79.606,0,0,1-1.05-13.193,79.583,79.583,0,0,1,1.05-13.191,60.774,60.774,0,0,1,3.15-11.674,60.8,60.8,0,0,1,4.925-10.041,49.778,49.778,0,0,1,6.376-8.3,49.623,49.623,0,0,1,16.2-11.364,47.336,47.336,0,0,1,18.9-3.937,47.334,47.334,0,0,1,18.9,3.938A49.635,49.635,0,0,1,665.947-477a49.8,49.8,0,0,1,6.376,8.3,60.8,60.8,0,0,1,4.925,10.041,60.77,60.77,0,0,1,3.15,11.674,79.583,79.583,0,0,1,1.05,13.191,79.606,79.606,0,0,1-1.05,13.193,60.754,60.754,0,0,1-3.15,11.672,60.784,60.784,0,0,1-4.925,10.042,49.8,49.8,0,0,1-6.376,8.3,49.625,49.625,0,0,1-16.2,11.364A47.334,47.334,0,0,1,630.848-375.294Zm0-90.235a18.069,18.069,0,0,0-8.925,2.138,17.32,17.32,0,0,0-6.375,6.413,33.828,33.828,0,0,0-3.825,10.07,61.542,61.542,0,0,0-1.275,13.108,61.532,61.532,0,0,0,1.275,13.108,33.81,33.81,0,0,0,3.825,10.069,17.318,17.318,0,0,0,6.375,6.413,18.077,18.077,0,0,0,8.925,2.138,18.075,18.075,0,0,0,8.924-2.138,17.312,17.312,0,0,0,6.376-6.413,33.819,33.819,0,0,0,3.824-10.069,61.545,61.545,0,0,0,1.275-13.108,61.542,61.542,0,0,0-1.275-13.108,33.833,33.833,0,0,0-3.824-10.07,17.313,17.313,0,0,0-6.376-6.413A18.067,18.067,0,0,0,630.848-465.529Zm-102.4,90.235c-7.832,0-14.56-1.211-20-3.6a34.342,34.342,0,0,1-13.3-10.014,39.6,39.6,0,0,1-7.3-15.414,84.816,84.816,0,0,1-2.2-20.028v-39.38h-25v-24.528l26.4-1.35,3.8-34.2h24.2v34.2h42v25.878h-42v39.155a41.772,41.772,0,0,0,1.25,10.942,16.786,16.786,0,0,0,3.75,7.173,15.462,15.462,0,0,0,6.5,3.966,30.546,30.546,0,0,0,9.5,1.321,44.434,44.434,0,0,0,10.3-1.125,70.823,70.823,0,0,0,9.3-2.925l5.2,23.853c-4.379,1.493-9.257,2.893-14.5,4.162A76.653,76.653,0,0,1,528.448-375.294Zm-137.6,0a47.333,47.333,0,0,1-18.9-3.937,49.622,49.622,0,0,1-16.2-11.364,49.848,49.848,0,0,1-6.376-8.3,60.782,60.782,0,0,1-4.925-10.042,60.706,60.706,0,0,1-3.15-11.672,79.588,79.588,0,0,1-1.049-13.193,79.57,79.57,0,0,1,1.049-13.191,60.732,60.732,0,0,1,3.15-11.674A54.706,54.706,0,0,1,355.748-477a49.616,49.616,0,0,1,16.2-11.364,47.333,47.333,0,0,1,18.9-3.937,47.334,47.334,0,0,1,18.9,3.938A49.617,49.617,0,0,1,425.948-477a54.7,54.7,0,0,1,11.3,18.339,60.689,60.689,0,0,1,3.15,11.674,79.575,79.575,0,0,1,1.05,13.191,79.578,79.578,0,0,1-1.05,13.193,60.666,60.666,0,0,1-3.15,11.672,60.767,60.767,0,0,1-4.925,10.042,49.87,49.87,0,0,1-6.375,8.3,49.62,49.62,0,0,1-16.2,11.364A47.334,47.334,0,0,1,390.848-375.294Zm0-90.235a18.069,18.069,0,0,0-8.925,2.138,17.318,17.318,0,0,0-6.375,6.413,33.818,33.818,0,0,0-3.825,10.07,61.544,61.544,0,0,0-1.275,13.108,61.534,61.534,0,0,0,1.275,13.108,33.816,33.816,0,0,0,3.825,10.069,17.312,17.312,0,0,0,6.375,6.413,18.077,18.077,0,0,0,8.925,2.138,18.075,18.075,0,0,0,8.924-2.138,17.314,17.314,0,0,0,6.376-6.413,33.817,33.817,0,0,0,3.825-10.069,61.536,61.536,0,0,0,1.275-13.108,61.546,61.546,0,0,0-1.275-13.108,33.834,33.834,0,0,0-3.825-10.07,17.318,17.318,0,0,0-6.376-6.413A18.067,18.067,0,0,0,390.848-465.529Zm-72,87.536h-29.4v-64.582a51.765,51.765,0,0,0-.8-9.732,20.08,20.08,0,0,0-2.4-6.7,9.976,9.976,0,0,0-4.451-3.882,16.834,16.834,0,0,0-6.95-1.294,18.922,18.922,0,0,0-10.5,2.926,50.373,50.373,0,0,0-9.7,8.776v74.483h-29.4V-535.737h29.4v38.7l-1.6,21.378h.6a60.412,60.412,0,0,1,13.6-11.589,31.264,31.264,0,0,1,8.85-3.8,41.851,41.851,0,0,1,10.55-1.266,32.511,32.511,0,0,1,14.525,3.037,24.743,24.743,0,0,1,9.975,9.113,46.317,46.317,0,0,1,5.775,14.4,84.652,84.652,0,0,1,1.925,18.9v68.858Zm-183.6,0h-29.4V-524.71h46.2a81.007,81.007,0,0,1,19.9,2.362,42.435,42.435,0,0,1,16.2,7.876,34.9,34.9,0,0,1,6.175,6.413,42.012,42.012,0,0,1,4.725,8.213,45.044,45.044,0,0,1,3,10.155,70.044,70.044,0,0,1,1,12.236,66.5,66.5,0,0,1-1.025,11.982,47.476,47.476,0,0,1-3.074,10.294,46.932,46.932,0,0,1-4.825,8.607,39.805,39.805,0,0,1-6.276,6.919,45.6,45.6,0,0,1-16.2,9,64.606,64.606,0,0,1-19.6,2.925h-16.8Zm0-120.388v44.33h15a34.16,34.16,0,0,0,10.5-1.462,19,19,0,0,0,7.5-4.388,18.352,18.352,0,0,0,4.5-7.312,31.82,31.82,0,0,0,1.5-10.239,27.992,27.992,0,0,0-1.525-9.789,14.3,14.3,0,0,0-4.576-6.413,20.9,20.9,0,0,0-7.525-3.544,41.037,41.037,0,0,0-10.374-1.182Z"/>
    <path class="cls-3" d="M 1079.248168945312 -279.5895080566406 L 1080.647583007812 -279.5895385742188 L 1080.647583007812 -297.6798400878906 L 1079.288940429688 -315.3725280761719 L 1079.248168945312 -317.0950012207031 L 1079.248168945312 -279.5895080566406 M 791.066162109375 -297.0227966308594 C 791.1870727539062 -297.9200439453125 791.2479858398438 -298.8457641601562 791.2479858398438 -299.7925109863281 C 791.2479858398438 -303.4047241210938 790.5889892578125 -305.5443115234375 790.0343627929688 -306.7071228027344 C 789.4625854492188 -307.9069213867188 788.642578125 -308.8165283203125 787.4559936523438 -309.5683288574219 C 786.0059204101562 -310.4869079589844 784.1343994140625 -311.2919311523438 781.9563598632812 -311.9403076171875 C 784.3936767578125 -310.365966796875 786.4386596679688 -308.3107299804688 787.9881591796875 -305.855712890625 C 789.6422729492188 -303.2336730957031 790.6727905273438 -300.27294921875 791.066162109375 -297.0227966308594 M 1353.682495117188 -313.5107116699219 L 1357.032836914062 -323.1462707519531 L 1352.844360351562 -323.1473083496094 L 1349.86962890625 -323.1480407714844 L 1353.066040039062 -315.0689086914062 L 1353.682495117188 -313.5107116699219 M 1119.56396484375 -318.3255004882812 C 1122.458618164062 -318.4906616210938 1125.301147460938 -319.298828125 1128.03076171875 -320.7347106933594 C 1131.349365234375 -322.4799194335938 1134.4248046875 -325.1665344238281 1137.170043945312 -328.7181091308594 C 1140.161010742188 -332.5889282226562 1142.6357421875 -337.5169372558594 1144.526245117188 -343.3661193847656 C 1146.464599609375 -349.3627319335938 1147.447387695312 -356.5067138671875 1147.447387695312 -364.5999145507812 C 1147.447387695312 -371.9305114746094 1146.688354492188 -378.5899353027344 1145.191528320312 -384.3917236328125 C 1143.819946289062 -389.7061157226562 1141.864624023438 -394.2001342773438 1139.37939453125 -397.7489318847656 C 1137.173217773438 -400.8993225097656 1134.531127929688 -403.330322265625 1131.527587890625 -404.97412109375 C 1130.142578125 -405.7317199707031 1128.644409179688 -406.3103332519531 1127.083374023438 -406.6917114257812 C 1125.410400390625 -407.0995178222656 1123.581420898438 -407.3061218261719 1121.647583007812 -407.3061218261719 C 1121.489379882812 -407.3061218261719 1121.330688476562 -407.3039855957031 1121.171997070312 -407.2997131347656 C 1123.498901367188 -406.6950073242188 1125.706298828125 -405.8184509277344 1127.780151367188 -404.6733093261719 C 1132.219970703125 -402.2207336425781 1135.88818359375 -398.6297302246094 1138.683349609375 -393.9993286132812 C 1141.027221679688 -390.1159362792969 1142.760375976562 -385.4413146972656 1143.835571289062 -380.1009216308594 C 1144.772827148438 -375.4385070800781 1145.248046875 -370.0719299316406 1145.248046875 -364.1499328613281 C 1145.248046875 -357.3791198730469 1144.66357421875 -351.3277282714844 1143.51123046875 -346.1637268066406 C 1142.166137695312 -340.1383361816406 1139.976440429688 -334.9925231933594 1137.001831054688 -330.8689270019531 C 1133.928588867188 -326.609130859375 1130.272583007812 -323.2861328125 1126.137817382812 -320.9939270019531 C 1124.043090820312 -319.83203125 1121.846801757812 -318.9412841796875 1119.56396484375 -318.3255004882812 M 971.1021728515625 -318.6885375976562 C 969.6210327148438 -319.3583068847656 968.2265014648438 -320.1499633789062 966.9219970703125 -321.0625305175781 C 963.6873779296875 -323.3255310058594 961.1095581054688 -326.3971252441406 959.4739990234375 -329.9315185546875 C 957.99658203125 -333.1147155761719 957.24755859375 -336.6779174804688 957.24755859375 -340.5223083496094 C 957.24755859375 -340.9734191894531 957.2579345703125 -341.4228820800781 957.278564453125 -341.8697814941406 C 957.1250610351562 -340.6658020019531 957.0479736328125 -339.3905944824219 957.0479736328125 -338.0473327636719 C 957.0479736328125 -334.967529296875 957.5166015625 -332.1681213378906 958.4409790039062 -329.7261352539062 C 959.3399658203125 -327.3509216308594 960.60400390625 -325.2589111328125 962.1983642578125 -323.5083312988281 C 963.63720703125 -321.9283142089844 965.451416015625 -320.6595153808594 967.5947875976562 -319.7355346679688 C 968.6541748046875 -319.2783203125 969.826171875 -318.9288330078125 971.1021728515625 -318.6885375976562 M 1264.847778320312 -320.99267578125 L 1264.847778320312 -375.8519287109375 C 1264.847778320312 -381.8089294433594 1264.321166992188 -387.1073303222656 1263.282958984375 -391.5979309082031 C 1262.361572265625 -395.5809326171875 1261.028442382812 -398.9677124023438 1259.322998046875 -401.6601257324219 C 1258.142333984375 -403.5227355957031 1256.712768554688 -404.8525085449219 1254.950561523438 -405.726318359375 C 1252.866943359375 -406.7597351074219 1249.995971679688 -407.3061218261719 1246.647583007812 -407.3061218261719 C 1244.450927734375 -407.3061218261719 1242.419067382812 -407.1095886230469 1240.59423828125 -406.7216796875 C 1243.096313476562 -406.3061218261719 1245.43408203125 -405.6081848144531 1247.583740234375 -404.6325073242188 C 1251.988403320312 -402.6333312988281 1255.644409179688 -399.4271240234375 1258.15283203125 -395.3671264648438 C 1260.1083984375 -392.205322265625 1261.533813476562 -388.375732421875 1262.390014648438 -383.9809265136719 C 1263.091796875 -380.3733215332031 1263.447631835938 -376.19970703125 1263.447631835938 -371.575927734375 L 1263.447631835938 -320.9927673339844 L 1264.847778320312 -320.99267578125 M 849.4472045898438 -320.9930114746094 L 849.4465942382812 -365.0497131347656 L 849.4465942382812 -367.8995361328125 L 850.5606079101562 -370.5225219726562 C 852.0584106445312 -374.0494995117188 853.677978515625 -377.3205871582031 855.4024047851562 -380.3052062988281 L 848.0479736328125 -380.3076171875 L 848.0479736328125 -320.9930419921875 L 849.4472045898438 -320.9930114746094 M 1200.647216796875 -320.9935302734375 L 1200.647216796875 -381.4769287109375 L 1200.647216796875 -386.79931640625 L 1204.073852539062 -390.6545104980469 L 1199.248046875 -390.6545104980469 L 1199.248046875 -320.9935302734375 L 1200.647216796875 -320.9935302734375 M 1083.063354492188 -330.4443359375 L 1080.647583007812 -332.7743225097656 L 1080.647583007812 -338.7221069335938 L 1080.647583007812 -383.9527282714844 L 1080.647583007812 -389.1891174316406 L 1084.083984375 -393.1403198242188 C 1084.146606445312 -393.2123413085938 1084.209106445312 -393.2838134765625 1084.271850585938 -393.3553161621094 L 1079.920776367188 -393.3553161621094 L 1079.248168945312 -396.7942504882812 L 1079.248168945312 -330.4443359375 L 1083.063354492188 -330.4443359375 M 1023.846801757812 -331.13037109375 L 1023.846801757812 -365.7324523925781 L 1022.447387695312 -365.6430358886719 L 1022.447387695312 -358.9749145507812 L 1022.447387695312 -340.5223083496094 L 1022.447387695312 -334.1249084472656 L 1021.8388671875 -333.5981140136719 L 1023.416198730469 -333.5985107421875 L 1023.846801757812 -331.13037109375 M 1023.846801757812 -366.1345825195312 L 1023.846801757812 -370.9009094238281 C 1023.846801757812 -377.9813232421875 1023.055786132812 -384.0779113769531 1021.495178222656 -389.0235290527344 C 1020.166809082031 -393.2357177734375 1018.249206542969 -396.6547241210938 1015.79736328125 -399.1841125488281 C 1013.261596679688 -401.7991333007812 1010.202758789062 -403.7939147949219 1006.705383300781 -405.1133117675781 C 1005.843933105469 -405.4383544921875 1004.945495605469 -405.7276306152344 1004.01171875 -405.9808349609375 C 1006.814636230469 -404.8035888671875 1009.336547851562 -403.2813720703125 1011.5419921875 -401.4323120117188 C 1014.7265625 -398.7627258300781 1017.2763671875 -395.51953125 1019.12158203125 -391.7907104492188 C 1020.838806152344 -388.3189086914062 1021.932189941406 -384.4307250976562 1022.371398925781 -380.2339172363281 L 1023.846801757812 -366.1345825195312 M 520.0328979492188 -389.980224609375 C 516.0664672851562 -391.5950622558594 512.6558837890625 -393.8973083496094 509.8710021972656 -396.8439331054688 C 506.622802734375 -400.2815246582031 504.244384765625 -404.6775207519531 502.8023986816406 -409.9061279296875 C 501.6380004882812 -414.1239318847656 501.0475769042969 -419.0589294433594 501.0475769042969 -424.5739135742188 L 501.0475769042969 -463.7287292480469 L 501.0475769042969 -475.6061096191406 L 501.0475769042969 -488.8310546875 L 500.9619750976562 -488.0605163574219 L 499.6479797363281 -476.2323303222656 L 499.6471862792969 -476.2322692871094 L 499.6471862792969 -463.7287292480469 L 499.6471862792969 -424.34912109375 C 499.6471862792969 -418.1521301269531 500.2527770996094 -412.5323181152344 501.447998046875 -407.6429138183594 C 502.4223937988281 -403.6535339355469 503.9891967773438 -400.2817077636719 506.1055908203125 -397.6205139160156 C 508.05859375 -395.1643371582031 510.7395935058594 -393.1769104003906 514.0775756835938 -391.7119140625 C 515.777099609375 -390.9655456542969 517.78125 -390.3851013183594 520.0328979492188 -389.980224609375 M 304.8475952148438 -391.993408203125 L 304.8475952148438 -446.8519287109375 C 304.8475952148438 -452.8087158203125 304.3209838867188 -458.1073303222656 303.2821960449219 -462.6005249023438 C 302.3617858886719 -466.5817260742188 301.0291748046875 -469.9667358398438 299.3211975097656 -472.6623229980469 C 298.1416015625 -474.5241088867188 296.7121887207031 -475.8537292480469 294.9541931152344 -476.7257080078125 C 292.8685913085938 -477.759521484375 289.9960021972656 -478.3061218261719 286.6473999023438 -478.3061218261719 C 284.4515991210938 -478.3061218261719 282.4222412109375 -478.1098327636719 280.5964965820312 -477.721435546875 C 283.0987854003906 -477.3057861328125 285.4361572265625 -476.6077270507812 287.5857849121094 -475.6317138671875 C 291.9881896972656 -473.6325073242188 295.6429748535156 -470.4285278320312 298.1549987792969 -466.3659362792969 C 300.1107788085938 -463.2033081054688 301.535400390625 -459.3727111816406 302.3885803222656 -454.9855346679688 C 303.0909729003906 -451.3815307617188 303.4471740722656 -447.2063293457031 303.4471740722656 -442.575927734375 L 303.4471740722656 -391.9934387207031 L 304.8475952148438 -391.993408203125 M 240.6479949951172 -391.9939270019531 L 240.6479949951172 -452.4769287109375 L 240.6479949951172 -457.7991333007812 L 244.0746154785156 -461.6545104980469 L 239.2475891113281 -461.6545104980469 L 239.2475891113281 -391.9939270019531 L 240.6479949951172 -391.9939270019531 M 121.2475891113281 -391.9939270019531 L 121.2475891113281 -427.72412109375 L 121.2475891113281 -441.72412109375 L 121.2475891113281 -454.0517272949219 L 121.2475891113281 -498.3821105957031 L 121.2475891113281 -510.7099304199219 L 119.8471908569336 -510.7099304199219 L 119.8471908569336 -391.9939270019531 L 121.2475891113281 -391.9939270019531 M 604.8761596679688 -401.3531188964844 C 604.4060668945312 -402.0285949707031 603.955322265625 -402.7278442382812 603.5239868164062 -403.450927734375 C 601.0606079101562 -407.5811157226562 599.218994140625 -412.3697204589844 598.0501708984375 -417.6827087402344 C 596.98681640625 -422.5149230957031 596.4475708007812 -427.9375305175781 596.4475708007812 -433.7999267578125 C 596.4475708007812 -439.6607360839844 596.98681640625 -445.0829162597656 598.0498046875 -449.9153137207031 C 599.2183837890625 -455.2273254394531 601.0595703125 -460.0155334472656 603.5247802734375 -464.1505126953125 C 603.9549560546875 -464.8716125488281 604.4044799804688 -465.5690612792969 604.873291015625 -466.2428588867188 C 603.5792846679688 -464.7626342773438 602.3778686523438 -463.1262817382812 601.2904052734375 -461.3609313964844 C 599.8689575195312 -459.0543212890625 598.5979614257812 -456.4557189941406 597.5139770507812 -453.638916015625 C 596.4544067382812 -450.8843078613281 595.6427612304688 -447.863525390625 595.1019897460938 -444.6605224609375 C 594.5347900390625 -441.3011169433594 594.2471923828125 -437.6471252441406 594.2471923828125 -433.7999267578125 C 594.2471923828125 -429.9523315429688 594.5347900390625 -426.2977294921875 595.101806640625 -422.9393310546875 C 595.6431884765625 -419.7349243164062 596.45458984375 -416.7147216796875 597.5137939453125 -413.9617309570312 C 598.5977783203125 -411.1443176269531 599.8685913085938 -408.5455322265625 601.2915649414062 -406.2361145019531 C 602.3787841796875 -404.4714050292969 603.5803833007812 -402.8348083496094 604.8761596679688 -401.3531188964844 M 416.8216247558594 -401.3563537597656 C 418.1148376464844 -402.8362426757812 419.3159790039062 -404.4727172851562 420.4031982421875 -406.2369079589844 C 421.8265991210938 -408.5467224121094 423.0973815917969 -411.1453247070312 424.182373046875 -413.9661254882812 C 425.2401733398438 -416.713134765625 426.0509948730469 -419.7317199707031 426.5925903320312 -422.938720703125 C 427.1597900390625 -426.2973327636719 427.4473876953125 -429.9515075683594 427.4473876953125 -433.7999267578125 C 427.4473876953125 -437.6469116210938 427.1597900390625 -441.3007202148438 426.5923767089844 -444.6603088378906 C 426.05078125 -447.867919921875 425.2397766113281 -450.8875122070312 424.1811828613281 -453.63671875 C 422.2718811035156 -458.5977783203125 419.8009033203125 -462.8294067382812 416.8253784179688 -466.2381591796875 C 417.2936096191406 -465.56494140625 417.7430419921875 -464.8675537109375 418.1727905273438 -464.1471252441406 C 420.6351928710938 -460.0167236328125 422.4763793945312 -455.2289123535156 423.6455993652344 -449.9159240722656 C 424.7088012695312 -445.0829162597656 425.2479858398438 -439.6607360839844 425.2479858398438 -433.7999267578125 C 425.2479858398438 -427.9375305175781 424.7088012695312 -422.5149230957031 423.6455993652344 -417.6831359863281 C 422.4763793945312 -412.3695068359375 420.6347961425781 -407.5811157226562 418.1709899902344 -403.4503173828125 C 417.7405090332031 -402.7285766601562 417.290771484375 -402.0307006835938 416.8216247558594 -401.3563537597656 M 364.8720092773438 -401.3580017089844 C 364.4033508300781 -402.0319213867188 363.95361328125 -402.7299499511719 363.5235900878906 -403.4511108398438 C 361.0603942871094 -407.5811157226562 359.2187805175781 -412.3695068359375 358.0497741699219 -417.6827087402344 C 356.9863891601562 -422.5149230957031 356.4471740722656 -427.9375305175781 356.4471740722656 -433.7999267578125 C 356.4471740722656 -439.6607360839844 356.9863891601562 -445.0829162597656 358.0497741699219 -449.9167175292969 C 359.2193908691406 -455.2315368652344 361.0609741210938 -460.0199279785156 363.5242004394531 -464.1499328613281 C 363.9534301757812 -464.8695373535156 364.4020080566406 -465.5656433105469 364.8696899414062 -466.2381591796875 C 361.893798828125 -462.8294372558594 359.42236328125 -458.5978088378906 357.5130004882812 -453.6375122070312 C 356.4543762207031 -450.8861083984375 355.6429748535156 -447.86572265625 355.1017761230469 -444.6601257324219 C 354.5351867675781 -441.3045349121094 354.247802734375 -437.6507263183594 354.247802734375 -433.7999267578125 C 354.247802734375 -429.9485168457031 354.5351867675781 -426.2941284179688 355.1015930175781 -422.938720703125 C 355.6429748535156 -419.7333068847656 356.4541931152344 -416.7137145996094 357.51318359375 -413.9623107910156 C 358.5973815917969 -411.14453125 359.8683776855469 -408.5453186035156 361.2913818359375 -406.2359313964844 C 362.3763732910156 -404.47509765625 363.5771179199219 -402.839599609375 364.8720092773438 -401.3580017089844 M 656.8248901367188 -401.3602905273438 C 658.1176147460938 -402.839599609375 659.3178100585938 -404.4745178222656 660.40380859375 -406.2371215820312 C 661.826171875 -408.5455322265625 663.0969848632812 -411.1443176269531 664.1812133789062 -413.9623107910156 C 665.2401733398438 -416.7147216796875 666.0515747070312 -419.7349243164062 666.5927734375 -422.9375305175781 C 667.1599731445312 -426.2977294921875 667.4475708007812 -429.9523315429688 667.4475708007812 -433.7999267578125 C 667.4475708007812 -437.6471252441406 667.1599731445312 -441.3011169433594 666.5927734375 -444.6603088378906 C 666.052001953125 -447.863525390625 665.2404174804688 -450.8843078613281 664.1815795898438 -453.63671875 C 663.0968017578125 -456.4557189941406 661.8258056640625 -459.0543212890625 660.4030151367188 -461.3629150390625 C 659.318603515625 -463.1231689453125 658.1192626953125 -464.7572326660156 656.8265991210938 -466.2367858886719 C 657.2946166992188 -465.5637817382812 657.7437744140625 -464.8667602539062 658.1734008789062 -464.1465148925781 C 660.6353759765625 -460.0167236328125 662.4761962890625 -455.228515625 663.644775390625 -449.9159240722656 C 664.7080078125 -445.0829162597656 665.2471923828125 -439.6607360839844 665.2471923828125 -433.7999267578125 C 665.2471923828125 -427.938720703125 664.7080078125 -422.5163269042969 663.644775390625 -417.6835327148438 C 662.4755859375 -412.3689270019531 660.6343994140625 -407.5807189941406 658.1715698242188 -403.4505310058594 C 657.7420043945312 -402.730224609375 657.29296875 -402.0333862304688 656.8248901367188 -401.3602905273438 M 903.7745361328125 -405.9761962890625 L 904.04736328125 -407.234375 C 903.2437133789062 -407.2785949707031 902.3143920898438 -407.3061218261719 901.24658203125 -407.3061218261719 C 898.61376953125 -407.3061218261719 896.0493774414062 -406.9419250488281 893.622802734375 -406.2227172851562 C 893.5181274414062 -406.1917419433594 893.41357421875 -406.1600341796875 893.3090209960938 -406.1275939941406 C 894.4867553710938 -406.2280883789062 895.6665649414062 -406.2785339355469 896.8463745117188 -406.2785339355469 C 899.3554077148438 -406.2785339355469 901.6532592773438 -406.1788330078125 903.7745361328125 -405.9761962890625 M 1199.248046875 -407.8485107421875 L 1200.647216796875 -426.554931640625 L 1200.647216796875 -450.7365112304688 L 1199.248046875 -450.7365112304688 L 1199.248046875 -407.8485107421875 M 176.6266326904297 -448.6006164550781 C 177.3332824707031 -449.1135559082031 178.0156402587891 -449.6555480957031 178.6733856201172 -450.2265319824219 C 180.1643829345703 -451.5199279785156 181.5309906005859 -453.0295104980469 182.7341918945312 -454.7123107910156 C 184.0011901855469 -456.4845275878906 185.1351928710938 -458.51611328125 186.1041870117188 -460.7493286132812 C 187.0427856445312 -462.9127197265625 187.7655944824219 -465.3533325195312 188.2533874511719 -468.00732421875 C 188.7801818847656 -470.8673095703125 189.0471801757812 -474.0457153320312 189.0471801757812 -477.4543151855469 C 189.0471801757812 -481.0365295410156 188.7841949462891 -484.32470703125 188.265380859375 -487.2287292480469 C 187.7967834472656 -489.8531188964844 187.1107940673828 -492.2057189941406 186.2287902832031 -494.2165222167969 C 185.3257904052734 -496.2733154296875 184.2721862792969 -498.1155090332031 183.098388671875 -499.6907348632812 C 182.0035858154297 -501.1593322753906 180.7619934082031 -502.4525146484375 179.4077911376953 -503.5345153808594 C 177.3661193847656 -505.1660461425781 175.021484375 -506.5025329589844 172.4057769775391 -507.528564453125 C 173.9411773681641 -506.697509765625 175.3812255859375 -505.7618408203125 176.7193908691406 -504.7247314453125 C 180.8209838867188 -501.5481262207031 183.8839874267578 -497.3271179199219 185.8253936767578 -492.17431640625 C 187.4323883056641 -487.9045104980469 188.2471923828125 -482.9519348144531 188.2471923828125 -477.4543151855469 C 188.2471923828125 -472.0295104980469 187.4893951416016 -467.0615234375 185.9941864013672 -462.6863098144531 C 184.2809906005859 -457.6751098632812 181.5977935791016 -453.3655090332031 178.0213928222656 -449.8797302246094 C 177.5696563720703 -449.439208984375 177.1044769287109 -449.0126647949219 176.6266326904297 -448.6006164550781 M 239.2475891113281 -478.8503112792969 L 240.6479949951172 -497.5563659667969 L 240.6479949951172 -521.73681640625 L 239.2475891113281 -521.73681640625 L 239.2475891113281 -478.8503112792969 M 746.24755859375 -259.5133361816406 C 739.8770141601562 -259.5133361816406 733.8546142578125 -260.0811157226562 728.3475952148438 -261.200927734375 C 722.840576171875 -262.3201293945312 718.0291748046875 -264.0617370605469 714.04736328125 -266.376708984375 C 710.0659790039062 -268.6901245117188 706.903564453125 -271.6807250976562 704.6480102539062 -275.2649230957031 C 702.3916015625 -278.846923828125 701.24755859375 -283.1623229980469 701.24755859375 -288.0917358398438 C 701.24755859375 -292.6459350585938 702.54296875 -296.8285217285156 705.0979614257812 -300.5235290527344 C 707.651611328125 -304.2179260253906 711.5374145507812 -307.5303344726562 716.6475830078125 -310.3685302734375 L 716.6475830078125 -311.2687072753906 C 713.86181640625 -313.2079162597656 711.4727783203125 -315.7065124511719 709.54736328125 -318.6945190429688 C 707.6687622070312 -321.6087341308594 706.693603515625 -325.4313354492188 706.6485595703125 -330.0561218261719 L 734.1885986328125 -372.5189208984375 C 734.9017944335938 -370.3157348632812 735.9639892578125 -368.4467163085938 737.3475952148438 -366.9633178710938 C 738.774169921875 -365.4319152832031 740.380615234375 -364.2679138183594 742.1220092773438 -363.5029296875 C 743.8631591796875 -362.7379150390625 745.789794921875 -362.3499145507812 747.8479614257812 -362.3499145507812 C 749.90478515625 -362.3499145507812 751.8391723632812 -362.7379150390625 753.5979614257812 -363.5027160644531 C 755.3547973632812 -364.267333984375 756.98681640625 -365.4317321777344 758.447998046875 -366.9633178710938 C 759.9074096679688 -368.4939270019531 761.017578125 -370.4337158203125 761.7473754882812 -372.7287292480469 C 762.4771728515625 -375.0271301269531 762.84716796875 -377.7431335449219 762.84716796875 -380.8017272949219 C 762.84716796875 -383.7117309570312 762.4771728515625 -386.3235168457031 761.7473754882812 -388.5651245117188 C 761.0180053710938 -390.8039245605469 759.907958984375 -392.7345275878906 758.447998046875 -394.3035278320312 C 756.336181640625 -396.5699157714844 753.8795776367188 -398.0377197265625 751.1461791992188 -398.6659240722656 L 764.11181640625 -418.6565246582031 C 764.12939453125 -418.6503295898438 764.1463623046875 -418.6439208984375 764.1637573242188 -418.6373291015625 L 764.1748046875 -418.6331176757812 L 764.2022094726562 -418.6229248046875 L 764.23779296875 -418.6097106933594 L 764.24755859375 -418.6063232421875 L 804.4478149414062 -418.6063232421875 L 804.4478149414062 -394.3035278320312 L 784.4472045898438 -394.3035278320312 C 785.509765625 -392.659912109375 786.518798828125 -390.5015258789062 787.4478149414062 -387.89013671875 C 788.3764038085938 -385.2753295898438 788.84716796875 -382.5119323730469 788.84716796875 -379.6767272949219 C 788.84716796875 -373.2559204101562 787.7708129882812 -367.6535339355469 785.6480102539062 -363.0251159667969 C 783.5227661132812 -358.3949279785156 780.5955810546875 -354.4961242675781 776.9475708007812 -351.4365234375 C 773.3015747070312 -348.3769226074219 768.927978515625 -346.0677185058594 763.9478149414062 -344.5731201171875 C 758.9707641601562 -343.0795288085938 753.5540161132812 -342.3223266601562 747.8479614257812 -342.3223266601562 C 743.5999755859375 -342.3223266601562 739.0244140625 -343.0795288085938 734.247802734375 -344.5731201171875 C 732.78857421875 -343.3783264160156 731.677978515625 -342.1667175292969 730.9475708007812 -340.9723205566406 C 730.218017578125 -339.7791137695312 729.8479614257812 -338.1895141601562 729.8479614257812 -336.247314453125 C 729.8479614257812 -334.7531127929688 730.1839599609375 -333.4567260742188 730.8468017578125 -332.3935241699219 C 731.5115966796875 -331.3289184570312 732.52099609375 -330.4679260253906 733.847412109375 -329.8339233398438 C 736.5009765625 -328.5647277832031 740.8078002929688 -327.9211120605469 746.6480102539062 -327.9211120605469 L 765.0477905273438 -327.9211120605469 C 771.55078125 -327.9211120605469 777.3629760742188 -327.3721313476562 782.3223876953125 -326.2895202636719 C 787.281005859375 -325.20751953125 791.52880859375 -323.5609130859375 794.9475708007812 -321.3953247070312 C 798.364990234375 -319.2299194335938 800.9639892578125 -316.3147277832031 802.6721801757812 -312.7309265136719 C 804.3814086914062 -309.1479187011719 805.2479858398438 -304.7947082519531 805.2479858398438 -299.7925109863281 C 805.2479858398438 -296.8817138671875 804.894775390625 -294.042724609375 804.1978149414062 -291.3543090820312 C 803.5011596679688 -288.6681213378906 802.44140625 -286.0561218261719 801.0477905273438 -283.5909118652344 C 798.2603759765625 -278.6631164550781 794.2904052734375 -274.3855285644531 789.247802734375 -270.876708984375 C 784.2073974609375 -267.3693237304688 777.9494018554688 -264.5679321289062 770.6475830078125 -262.5507202148438 C 763.3499755859375 -260.5353088378906 755.1405639648438 -259.5133361816406 746.24755859375 -259.5133361816406 Z M 732.2481689453125 -304.0687255859375 C 729.7263793945312 -302.2757263183594 727.9093627929688 -300.4963073730469 726.84716796875 -298.7801208496094 C 725.7860107421875 -297.0629272460938 725.247802734375 -295.1321105957031 725.247802734375 -293.0419311523438 C 725.247802734375 -290.9513244628906 725.8114013671875 -289.0963134765625 726.9227905273438 -287.5285339355469 C 728.032958984375 -285.9611206054688 729.7235717773438 -284.6363220214844 731.9475708007812 -283.5911254882812 C 736.3905639648438 -281.5009155273438 742.614990234375 -280.44091796875 750.4478149414062 -280.44091796875 C 754.431396484375 -280.44091796875 758.081787109375 -280.7625122070312 761.29736328125 -281.3969116210938 C 764.517578125 -282.0317077636719 767.3941650390625 -282.9969177246094 769.847412109375 -284.2659301757812 C 772.302978515625 -285.5351257324219 774.1705932617188 -286.9925231933594 775.3977661132812 -288.5975341796875 C 776.6256103515625 -290.2023315429688 777.2479858398438 -292.0003356933594 777.2479858398438 -293.9417114257812 C 777.2479858398438 -295.7327270507812 776.8778076171875 -297.2281188964844 776.1473999023438 -298.3859252929688 C 775.4169921875 -299.5431213378906 774.3070068359375 -300.3949279785156 772.8479614257812 -300.917724609375 C 769.9277954101562 -301.9629211425781 765.5537719726562 -302.492919921875 759.8475952148438 -302.492919921875 L 747.4473876953125 -302.492919921875 C 743.859375 -302.492919921875 740.8654174804688 -302.6063232421875 738.5479736328125 -302.8301086425781 C 736.2257690429688 -303.0537109375 734.1060180664062 -303.4703369140625 732.2479858398438 -304.0687255859375 C 732.2481689453125 -304.0687255859375 732.2481689453125 -304.0687255859375 732.2481689453125 -304.0687255859375 L 732.2479858398438 -304.0687255859375 Z M 1319.44775390625 -263.338134765625 C 1316.531005859375 -263.338134765625 1313.772216796875 -263.5275268554688 1311.248046875 -263.9007263183594 C 1308.723388671875 -264.2741088867188 1306.368041992188 -264.8423156738281 1304.247802734375 -265.589111328125 L 1309.447998046875 -290.7917175292969 C 1311.9677734375 -289.8961181640625 1314.591430664062 -289.4417114257812 1317.247192382812 -289.4417114257812 C 1320.1025390625 -289.4417114257812 1322.684936523438 -289.7823181152344 1324.922607421875 -290.4543151855469 C 1327.161376953125 -291.125732421875 1329.121215820312 -292.1475219726562 1330.747192382812 -293.4917297363281 C 1333.9990234375 -296.1801147460938 1336.454833984375 -299.7387084960938 1338.047241210938 -304.0685119628906 L 1340.047729492188 -309.9185180664062 L 1297.046752929688 -418.6061096191406 L 1326.247192382812 -418.6063232421875 L 1342.847778320312 -370.6759338378906 C 1344.704833984375 -365.4499206542969 1346.45458984375 -359.9611206054688 1348.048217773438 -354.3615112304688 C 1349.647216796875 -348.7349243164062 1351.261840820312 -342.943115234375 1352.847778320312 -337.1473083496094 L 1353.647827148438 -337.1471252441406 C 1354.973022460938 -342.6667175292969 1356.45361328125 -348.30712890625 1358.047729492188 -353.9113159179688 C 1359.652221679688 -359.5583190917969 1361.199829101562 -365.19873046875 1362.647827148438 -370.6759338378906 L 1377.24755859375 -418.6061096191406 L 1405.047607421875 -418.6063232421875 L 1365.847412109375 -305.8685302734375 C 1363.460571289062 -298.8549194335938 1360.83642578125 -292.6089172363281 1358.047729492188 -287.3033142089844 C 1355.261840820312 -282.0037231445312 1352.03173828125 -277.5369262695312 1348.447631835938 -274.0273132324219 C 1344.863037109375 -270.517333984375 1340.6572265625 -267.8297119140625 1335.947387695312 -266.0391235351562 C 1331.236206054688 -264.2469177246094 1325.684814453125 -263.338134765625 1319.44775390625 -263.338134765625 Z M 1065.248168945312 -265.589111328125 L 1065.248168945312 -418.6061096191406 L 1089.24755859375 -418.6063232421875 L 1091.447998046875 -407.3553161621094 L 1092.047607421875 -407.3553161621094 C 1096.02880859375 -411.3863220214844 1100.672241210938 -414.7555236816406 1105.848022460938 -417.3689270019531 C 1111.022216796875 -419.9815368652344 1116.338012695312 -421.3061218261719 1121.647583007812 -421.3061218261719 C 1124.697021484375 -421.3061218261719 1127.640747070312 -420.9655151367188 1130.397338867188 -420.2939147949219 C 1133.151000976562 -419.6211242675781 1135.792236328125 -418.59912109375 1138.246948242188 -417.2561340332031 C 1143.156372070312 -414.5695190429688 1147.395751953125 -410.7081298828125 1150.84716796875 -405.7793273925781 C 1154.29736328125 -400.8525085449219 1156.955444335938 -394.8337097167969 1158.747436523438 -387.89013671875 C 1160.538940429688 -380.9455261230469 1161.447387695312 -373.1095275878906 1161.447387695312 -364.5999145507812 C 1161.447387695312 -355.042724609375 1160.236206054688 -346.44970703125 1157.847412109375 -339.0599365234375 C 1155.459228515625 -331.6697082519531 1152.229248046875 -325.3101196289062 1148.248046875 -320.1579284667969 C 1144.264770507812 -315.0047302246094 1139.655029296875 -311.0299072265625 1134.547241210938 -308.3437194824219 C 1129.438598632812 -305.6563110351562 1124.021728515625 -304.2937316894531 1118.447998046875 -304.2937316894531 C 1113.935180664062 -304.2937316894531 1109.594848632812 -305.3155212402344 1105.547607421875 -307.3309326171875 C 1101.500244140625 -309.3459167480469 1097.631225585938 -312.412109375 1094.048217773438 -316.4443359375 L 1093.248046875 -316.4443359375 L 1094.647583007812 -298.2177124023438 L 1094.647583007812 -265.5899353027344 L 1094.645629882812 -265.5899353027344 L 1094.645629882812 -265.5901184082031 L 1065.248168945312 -265.589111328125 Z M 1113.048217773438 -394.3035278320312 C 1109.929931640625 -394.3035278320312 1106.801025390625 -393.4327087402344 1103.747436523438 -391.7151184082031 C 1100.695190429688 -389.9975280761719 1097.633544921875 -387.3859252929688 1094.647583007812 -383.9527282714844 L 1094.647583007812 -338.7221069335938 C 1097.435180664062 -336.0335083007812 1100.362426757812 -334.1027221679688 1103.347778320312 -332.9837341308594 C 1106.334228515625 -331.8639221191406 1109.126342773438 -331.2961120605469 1111.647583007812 -331.2961120605469 C 1114.434936523438 -331.2961120605469 1117.025390625 -331.9489135742188 1119.34716796875 -333.2367248535156 C 1121.6689453125 -334.52392578125 1123.788940429688 -336.4831237792969 1125.64794921875 -339.0599365234375 C 1127.505615234375 -341.6351318359375 1128.918334960938 -345.051513671875 1129.847412109375 -349.2135314941406 C 1130.776733398438 -353.3779296875 1131.248046875 -358.4031372070312 1131.248046875 -364.1499328613281 C 1131.248046875 -369.1473083496094 1130.865234375 -373.5859069824219 1130.110229492188 -377.3421325683594 C 1129.354736328125 -381.0941162109375 1128.20654296875 -384.2645263671875 1126.697387695312 -386.7649230957031 C 1125.187622070312 -389.2659301757812 1123.274169921875 -391.1683349609375 1121.010375976562 -392.4189147949219 C 1118.745361328125 -393.6695251464844 1116.06640625 -394.3035278320312 1113.048217773438 -394.3035278320312 Z M 975.6477661132812 -304.2937316894531 C 970.6021728515625 -304.2937316894531 966.026611328125 -305.1643371582031 962.0479736328125 -306.8811340332031 C 958.0678100585938 -308.5971069335938 954.6358032226562 -311.0199279785156 951.84716796875 -314.0821228027344 C 949.059814453125 -317.1429138183594 946.8731689453125 -320.7391357421875 945.347412109375 -324.7705078125 C 943.8215942382812 -328.8013305664062 943.0479736328125 -333.2681274414062 943.0479736328125 -338.0473327636719 C 943.0479736328125 -344.3195190429688 944.2587890625 -349.8841247558594 946.64697265625 -354.5865173339844 C 947.8410034179688 -356.9379272460938 949.4140014648438 -359.1429138183594 951.3225708007812 -361.1403198242188 C 953.2310180664062 -363.1381225585938 955.527587890625 -364.9831237792969 958.148193359375 -366.6251220703125 C 963.3839721679688 -369.9079284667969 970.2138061523438 -372.5959167480469 978.4478149414062 -374.6143188476562 C 986.6748046875 -376.6299133300781 996.7680053710938 -378.030517578125 1008.447387695312 -378.7769165039062 C 1008.181762695312 -381.3151245117188 1007.551208496094 -383.6055297851562 1006.572814941406 -385.5835266113281 C 1005.593017578125 -387.5635070800781 1004.23876953125 -389.2861328125 1002.547973632812 -390.7035217285156 C 1000.857360839844 -392.1209106445312 998.712158203125 -393.1995239257812 996.1721801757812 -393.9093322753906 C 993.6337890625 -394.6187133789062 990.6307983398438 -394.9783325195312 987.2470092773438 -394.9783325195312 C 982.4707641601562 -394.9783325195312 977.5925903320312 -394.0321350097656 972.747802734375 -392.1659240722656 C 967.9066162109375 -390.2999267578125 962.6242065429688 -387.763916015625 957.04736328125 -384.6277160644531 L 946.64697265625 -406.2295227050781 C 953.4187622070312 -410.5619201660156 960.7869873046875 -414.1957092285156 968.547607421875 -417.0313110351562 C 972.427978515625 -418.4491271972656 976.4569702148438 -419.5277099609375 980.52197265625 -420.2369079589844 C 984.5880126953125 -420.9463195800781 988.8021850585938 -421.3061218261719 993.04736328125 -421.3061218261719 C 999.9481811523438 -421.3061218261719 1006.206359863281 -420.26513671875 1011.647766113281 -418.2119140625 C 1017.088012695312 -416.1595153808594 1021.865783691406 -413.0367126464844 1025.848022460938 -408.9301147460938 C 1029.830200195312 -404.8221130371094 1032.858032226562 -399.5411071777344 1034.847045898438 -393.2343139648438 C 1036.837646484375 -386.9261169433594 1037.846801757812 -379.412109375 1037.846801757812 -370.9009094238281 L 1037.846801757812 -306.9935302734375 L 1013.846374511719 -306.9935302734375 L 1011.647766113281 -319.5955200195312 L 1010.847595214844 -319.5953369140625 C 1005.802978515625 -315.2647094726562 1000.218017578125 -311.592529296875 994.2479858398438 -308.6811218261719 C 991.2639770507812 -307.2259216308594 988.1851806640625 -306.1187133789062 985.0977783203125 -305.3899230957031 C 982.0105590820312 -304.6625366210938 978.8309936523438 -304.2937316894531 975.6477661132812 -304.2937316894531 Z M 1008.447387695312 -358.9749145507812 C 1001.149780273438 -358.526123046875 995.0263671875 -357.7687072753906 990.24755859375 -356.72412109375 C 985.47021484375 -355.6781311035156 981.6345825195312 -354.3533325195312 978.84716796875 -352.7863159179688 C 976.0603637695312 -351.2191162109375 974.0755615234375 -349.3643188476562 972.9478149414062 -347.2731323242188 C 971.819580078125 -345.18212890625 971.24755859375 -342.9109191894531 971.24755859375 -340.5223083496094 C 971.24755859375 -338.728515625 971.5589599609375 -337.1481323242188 972.1729736328125 -335.8251342773438 C 972.7861938476562 -334.5001220703125 973.7197875976562 -333.3927307128906 974.9475708007812 -332.5337219238281 C 977.4017944335938 -330.8169250488281 980.7998046875 -329.9463195800781 985.04736328125 -329.9463195800781 C 989.427978515625 -329.9463195800781 993.5999755859375 -330.9683227539062 997.4475708007812 -332.9839172363281 C 1001.298217773438 -335.0009155273438 1004.999206542969 -337.537109375 1008.447387695312 -340.5223083496094 L 1008.447387695312 -358.9749145507812 Z M 1278.847778320312 -306.9919128417969 L 1278.84619140625 -306.9927368164062 L 1278.845581054688 -306.992919921875 L 1249.447631835938 -306.9935302734375 L 1249.447631835938 -371.575927734375 C 1249.447631835938 -375.3047180175781 1249.178344726562 -378.5789184570312 1248.647583007812 -381.3075256347656 C 1248.116821289062 -384.0319213867188 1247.308837890625 -386.2847290039062 1246.246215820312 -388.0027160644531 C 1245.185180664062 -389.7201232910156 1243.688354492188 -391.0259094238281 1241.797607421875 -391.8841247558594 C 1239.905395507812 -392.742919921875 1237.567016601562 -393.1785278320312 1234.847778320312 -393.1785278320312 C 1230.8662109375 -393.1785278320312 1227.3330078125 -392.1941223144531 1224.346557617188 -390.2527160644531 C 1221.361328125 -388.3121337890625 1218.098022460938 -385.3595275878906 1214.647216796875 -381.4769287109375 L 1214.647216796875 -306.9935302734375 L 1185.248046875 -306.9935302734375 L 1185.248046875 -464.7365112304688 L 1214.647216796875 -464.7365112304688 L 1214.647216796875 -426.0321350097656 L 1213.048217773438 -404.6545104980469 L 1213.647338867188 -404.6545104980469 C 1217.362182617188 -408.9839172363281 1221.938232421875 -412.8833312988281 1227.247192382812 -416.2439270019531 C 1229.901000976562 -417.9229125976562 1232.878540039062 -419.2003173828125 1236.097045898438 -420.0407104492188 C 1239.316162109375 -420.8803100585938 1242.8662109375 -421.3061218261719 1246.647583007812 -421.3061218261719 C 1252.220947265625 -421.3061218261719 1257.107543945312 -420.2841186523438 1261.171997070312 -418.2679138183594 C 1265.235595703125 -416.2529296875 1268.592041015625 -413.1871337890625 1271.147583007812 -409.1553344726562 C 1273.701538085938 -405.1231079101562 1275.644775390625 -400.2775268554688 1276.922729492188 -394.7533264160156 C 1278.2001953125 -389.2277221679688 1278.847778320312 -382.8681335449219 1278.847778320312 -375.8519287109375 L 1278.847778320312 -306.9935302734375 L 1278.847778320312 -306.9919128417969 Z M 863.4473876953125 -306.9925231933594 L 863.4464111328125 -306.9935302734375 L 863.4447631835938 -306.9935302734375 L 834.0479736328125 -306.9935302734375 L 834.0479736328125 -418.6061096191406 L 858.04736328125 -418.6063232421875 L 860.4478149414062 -394.3035278320312 L 861.0479736328125 -394.3033142089844 C 863.5023803710938 -398.8575134277344 866.2448120117188 -402.8799133300781 869.1975708007812 -406.2581176757812 C 872.1480102539062 -409.6341247558594 875.3945922851562 -412.4639282226562 878.847412109375 -414.6689147949219 C 882.2979736328125 -416.8713073730469 885.9315795898438 -418.5461120605469 889.6473999023438 -419.6465148925781 C 893.3645629882812 -420.7479248046875 897.2669677734375 -421.3061218261719 901.24658203125 -421.3061218261719 C 905.6273803710938 -421.3061218261719 909.227783203125 -420.927734375 911.9475708007812 -420.1811218261719 C 914.6649780273438 -419.4355163574219 917.5249633789062 -418.3001098632812 920.447998046875 -416.8063354492188 L 914.4469604492188 -389.1277160644531 C 911.3999633789062 -390.1711120605469 908.6079711914062 -390.9665222167969 906.14697265625 -391.4911193847656 C 903.6864013671875 -392.0135192871094 900.5571899414062 -392.2785339355469 896.8463745117188 -392.2785339355469 C 893.7957763671875 -392.2785339355469 890.7260131835938 -391.767333984375 887.72216796875 -390.7593078613281 C 884.7215576171875 -389.7519226074219 881.7017822265625 -388.2187194824219 878.74658203125 -386.2025146484375 C 875.7921752929688 -384.1841125488281 873.0081787109375 -381.3827209472656 870.4718017578125 -377.875732421875 C 867.9351806640625 -374.3687133789062 865.5715942382812 -370.0535278320312 863.4465942382812 -365.0499267578125 L 863.4473876953125 -306.9935302734375 L 863.4473876953125 -306.9925231933594 Z M 701.3529663085938 -356.5421142578125 L 701.3529663085938 -356.544921875 C 701.282958984375 -357.3669128417969 701.24755859375 -358.2235107421875 701.24755859375 -359.0911254882812 C 701.24755859375 -363.6451110839844 702.5427856445312 -367.828125 705.0968017578125 -371.5235290527344 C 707.6530151367188 -375.2201232910156 711.5391845703125 -378.53271484375 716.6475830078125 -381.3689270019531 L 716.6475830078125 -382.2687072753906 C 713.860595703125 -384.209716796875 711.4715576171875 -386.7083129882812 709.54736328125 -389.6945190429688 C 707.6234130859375 -392.6805114746094 706.6477661132812 -396.6177368164062 706.6477661132812 -401.3965148925781 C 706.6477661132812 -405.1293334960938 707.7578125 -408.9147338867188 709.9469604492188 -412.6471252441406 C 712.13720703125 -416.3799133300781 714.9971923828125 -419.6355285644531 718.4475708007812 -422.3233337402344 L 718.4475708007812 -423.22412109375 C 714.8648071289062 -425.9109191894531 711.7691650390625 -429.7343139648438 709.247802734375 -434.5877075195312 C 706.7257690429688 -439.4403076171875 705.4469604492188 -445.2321166992188 705.4469604492188 -451.8017272949219 C 705.4469604492188 -458.51953125 706.6248168945312 -464.4627075195312 708.9472045898438 -469.4661254882812 C 711.2708129882812 -474.4701232910156 714.3999633789062 -478.7099304199219 718.247802734375 -482.0679321289062 C 722.0953979492188 -485.4271240234375 726.6373901367188 -488.0011291503906 731.747802734375 -489.7187194824219 C 736.8573608398438 -491.4357299804688 742.274169921875 -492.3061218261719 747.8479614257812 -492.3061218261719 C 753.9508056640625 -492.3061218261719 759.4683837890625 -491.3979187011719 764.24755859375 -489.6063232421875 L 789.7589721679688 -489.6063232421875 L 762.731201171875 -448.9253234863281 C 762.8076171875 -449.8327331542969 762.84716796875 -450.8003234863281 762.84716796875 -451.8017272949219 C 762.84716796875 -454.7139282226562 762.4771728515625 -457.325927734375 761.7473754882812 -459.5653076171875 C 761.0172119140625 -461.8051147460938 759.9067993164062 -463.7359313964844 758.4472045898438 -465.3035278320312 C 756.9862060546875 -466.8713073730469 755.3543701171875 -468.0635070800781 753.5969848632812 -468.846923828125 C 751.8375854492188 -469.6309204101562 749.9031982421875 -470.0285339355469 747.8479614257812 -470.0285339355469 C 745.7918090820312 -470.0285339355469 743.8651733398438 -469.6309204101562 742.1220092773438 -468.846923828125 C 740.3807983398438 -468.0629272460938 738.7744140625 -466.8707275390625 737.3475952148438 -465.3035278320312 C 735.920166015625 -463.7339172363281 734.835205078125 -461.8035278320312 734.122802734375 -459.5653076171875 C 733.4089965820312 -457.3253173828125 733.0471801757812 -454.7133178710938 733.0471801757812 -451.8017272949219 C 733.0471801757812 -448.7409362792969 733.4089965820312 -446.0247192382812 734.122802734375 -443.7287292480469 C 734.8355712890625 -441.4339294433594 735.9205932617188 -439.4939270019531 737.3475952148438 -437.9627075195312 C 738.773193359375 -436.43212890625 740.3795776367188 -435.2681274414062 742.1220092773438 -434.5029296875 C 743.8645629882812 -433.7379150390625 745.791015625 -433.3499145507812 747.8479614257812 -433.3499145507812 C 749.6707763671875 -433.3499145507812 751.3983764648438 -433.6539306640625 752.9832153320312 -434.2535095214844 L 739.64599609375 -414.1789245605469 C 737.8927612304688 -414.5317077636719 736.0767822265625 -415.0009155273438 734.2470092773438 -415.5733337402344 C 732.7874145507812 -414.3773193359375 731.6767578125 -413.1657104492188 730.9475708007812 -411.9723205566406 C 730.218017578125 -410.7781372070312 729.8479614257812 -409.1885070800781 729.8479614257812 -407.247314453125 C 729.8479614257812 -405.1919250488281 730.4848022460938 -403.5207214355469 731.7406005859375 -402.2801208496094 L 701.3547973632812 -356.544921875 L 701.3529663085938 -356.5421142578125 Z M 630.8479614257812 -375.2937316894531 C 624.3441772460938 -375.2937316894531 617.9848022460938 -376.6185302734375 611.9469604492188 -379.2311096191406 C 605.9088134765625 -381.8441162109375 600.4588012695312 -385.6673278808594 595.747802734375 -390.5947265625 C 593.392578125 -393.0567321777344 591.24755859375 -395.8485107421875 589.3721923828125 -398.8925170898438 C 587.4979858398438 -401.9339294433594 585.8410034179688 -405.3125305175781 584.4473876953125 -408.9349365234375 C 583.0537719726562 -412.5569152832031 581.9939575195312 -416.4839172363281 581.29736328125 -420.6071166992188 C 580.6005859375 -424.7347106933594 580.2471923828125 -429.1733093261719 580.2471923828125 -433.7999267578125 C 580.2471923828125 -438.4263305664062 580.6005859375 -442.8645324707031 581.29736328125 -446.9913330078125 C 581.993408203125 -451.1131286621094 583.0531616210938 -455.0409240722656 584.4473876953125 -458.6653137207031 C 585.8413696289062 -462.2873229980469 587.4981689453125 -465.6657104492188 589.3721923828125 -468.7063293457031 C 591.24755859375 -471.750732421875 593.3927612304688 -474.5425109863281 595.747802734375 -477.0045166015625 C 600.4575805664062 -481.9311218261719 605.9077758789062 -485.7545166015625 611.9469604492188 -488.3687133789062 C 617.9849853515625 -490.9813232421875 624.3441772460938 -492.3061218261719 630.8479614257812 -492.3061218261719 C 637.3510131835938 -492.3061218261719 643.7097778320312 -490.9813232421875 649.747802734375 -488.3687133789062 C 655.7849731445312 -485.7555236816406 661.2351684570312 -481.93212890625 665.9469604492188 -477.0045166015625 C 668.302978515625 -474.5409240722656 670.447998046875 -471.7491149902344 672.3225708007812 -468.7063293457031 C 674.1965942382812 -465.6657104492188 675.8533935546875 -462.2873229980469 677.2473754882812 -458.6653137207031 C 678.6416015625 -455.0409240722656 679.701416015625 -451.1131286621094 680.3973999023438 -446.9913330078125 C 681.0941772460938 -442.8645324707031 681.4475708007812 -438.4263305664062 681.4475708007812 -433.7999267578125 C 681.4475708007812 -429.1733093261719 681.0941772460938 -424.7347106933594 680.3973999023438 -420.6071166992188 C 679.7008056640625 -416.4839172363281 678.6409912109375 -412.5569152832031 677.2473754882812 -408.9349365234375 C 675.853759765625 -405.3125305175781 674.19677734375 -401.9339294433594 672.3225708007812 -398.8925170898438 C 670.4478149414062 -395.8497314453125 668.302978515625 -393.0579223632812 665.9469604492188 -390.5947265625 C 661.2357788085938 -385.6673278808594 655.7855834960938 -381.8441162109375 649.747802734375 -379.2311096191406 C 643.7099609375 -376.6185302734375 637.3510131835938 -375.2937316894531 630.8479614257812 -375.2937316894531 Z M 630.8479614257812 -465.5285339355469 C 627.4627685546875 -465.5285339355469 624.4599609375 -464.8091125488281 621.922607421875 -463.3903198242188 C 619.3845825195312 -461.9717102050781 617.2398071289062 -459.8141174316406 615.5477905273438 -456.9779357910156 C 613.8554077148438 -454.1391296386719 612.568359375 -450.7511291503906 611.7229614257812 -446.90771484375 C 610.8765869140625 -443.0605163574219 610.4475708007812 -438.6503295898438 610.4475708007812 -433.7999267578125 C 610.4475708007812 -428.9481201171875 610.8765869140625 -424.5377197265625 611.7229614257812 -420.6915283203125 C 612.568603515625 -416.8475341796875 613.8554077148438 -413.459716796875 615.5477905273438 -410.6221313476562 C 617.2406005859375 -407.7845153808594 619.3853759765625 -405.626708984375 621.922607421875 -404.2089233398438 C 624.4603881835938 -402.79052734375 627.46337890625 -402.0713195800781 630.8479614257812 -402.0713195800781 C 634.2318115234375 -402.0713195800781 637.234375 -402.79052734375 639.772216796875 -404.2089233398438 C 642.3106079101562 -405.6269226074219 644.45556640625 -407.7847290039062 646.1480102539062 -410.6221313476562 C 647.8389892578125 -413.4579162597656 649.1257934570312 -416.8459167480469 649.9718017578125 -420.6915283203125 C 650.8181762695312 -424.5387268066406 651.2471923828125 -428.9489135742188 651.2471923828125 -433.7999267578125 C 651.2471923828125 -438.6503295898438 650.8181762695312 -443.0605163574219 649.9718017578125 -446.90771484375 C 649.1259765625 -450.7529296875 647.8391723632812 -454.1409301757812 646.1480102539062 -456.9779357910156 C 644.455810546875 -459.8147277832031 642.310791015625 -461.971923828125 639.772216796875 -463.3903198242188 C 637.2348022460938 -464.8091125488281 634.2323608398438 -465.5285339355469 630.8479614257812 -465.5285339355469 Z M 528.4478149414062 -375.2937316894531 C 520.615966796875 -375.2937316894531 513.88720703125 -376.5049133300781 508.447998046875 -378.8937072753906 C 503.0069885253906 -381.2817077636719 498.531982421875 -384.6509094238281 495.1475830078125 -388.9071350097656 C 491.7623901367188 -393.1639099121094 489.3061828613281 -398.3499145507812 487.8477783203125 -404.3213195800781 C 486.3875732421875 -410.294921875 485.6471862792969 -417.0331115722656 485.6471862792969 -424.34912109375 L 485.6471862792969 -463.7287292480469 L 460.64697265625 -463.7287292480469 L 460.64697265625 -488.2563171386719 L 487.0475769042969 -489.6063232421875 L 490.8473815917969 -523.8099365234375 L 515.047607421875 -523.8099365234375 L 515.047607421875 -489.6061096191406 L 557.0477905273438 -489.6063232421875 L 557.0477905273438 -463.7287292480469 L 515.047607421875 -463.7287292480469 L 515.047607421875 -424.5739135742188 C 515.047607421875 -420.3177185058594 515.4682006835938 -416.6361083984375 516.297607421875 -413.6319274902344 C 517.1259765625 -410.6279296875 518.3878173828125 -408.2149353027344 520.0469970703125 -406.4589233398438 C 521.7047729492188 -404.7049255371094 523.8916015625 -403.3705139160156 526.5468139648438 -402.4927368164062 C 529.2003784179688 -401.6161193847656 532.3967895507812 -401.1715087890625 536.0471801757812 -401.1715087890625 C 539.7639770507812 -401.1715087890625 543.2296142578125 -401.5499267578125 546.3477783203125 -402.2965087890625 C 549.4605712890625 -403.0409240722656 552.589599609375 -404.0249328613281 555.6473999023438 -405.2213134765625 L 560.8475952148438 -381.3687133789062 C 556.4688110351562 -379.875732421875 551.590576171875 -378.4757080078125 546.3477783203125 -377.2063293457031 C 541.1068115234375 -375.9371337890625 535.0845947265625 -375.2937316894531 528.4478149414062 -375.2937316894531 Z M 390.8475952148438 -375.2937316894531 C 384.3443908691406 -375.2937316894531 377.9853820800781 -376.6185302734375 371.9476013183594 -379.2311096191406 C 365.9097900390625 -381.8439331054688 360.4591979980469 -385.6671142578125 355.7475891113281 -390.5947265625 C 353.390380859375 -393.0601196289062 351.2453918457031 -395.8517150878906 349.3719787597656 -398.8925170898438 C 347.497802734375 -401.9339294433594 345.8407897949219 -405.3125305175781 344.4469909667969 -408.9349365234375 C 343.0533752441406 -412.5557250976562 341.9937744140625 -416.4827270507812 341.2971801757812 -420.6071166992188 C 340.6009826660156 -424.7303161621094 340.247802734375 -429.1689147949219 340.247802734375 -433.7999267578125 C 340.247802734375 -438.4303283691406 340.6009826660156 -442.8685302734375 341.2971801757812 -446.9913330078125 C 341.9935913085938 -451.1155090332031 343.0531921386719 -455.0431213378906 344.4469909667969 -458.6653137207031 C 347.2349853515625 -465.9079284667969 351.0369873046875 -472.078125 355.7475891113281 -477.0045166015625 C 360.4577941894531 -481.9317321777344 365.9081726074219 -485.7549133300781 371.9476013183594 -488.3687133789062 C 377.985595703125 -490.9813232421875 384.3443908691406 -492.3061218261719 390.8475952148438 -492.3061218261719 C 397.3505859375 -492.3061218261719 403.7093811035156 -490.9813232421875 409.7475891113281 -488.3687133789062 C 415.7865905761719 -485.755126953125 421.2369995117188 -481.9319152832031 425.9476013183594 -477.0045166015625 C 430.6577758789062 -472.0785217285156 434.4593811035156 -465.9083251953125 437.2469787597656 -458.6653137207031 C 438.6401977539062 -455.0467224121094 439.6999816894531 -451.1189270019531 440.39697265625 -446.9913330078125 C 441.093994140625 -442.8639221191406 441.4473876953125 -438.4259338378906 441.4473876953125 -433.7999267578125 C 441.4473876953125 -429.1727294921875 441.093994140625 -424.7339172363281 440.39697265625 -420.6071166992188 C 439.6999816894531 -416.4791259765625 438.6399841308594 -412.5521240234375 437.2469787597656 -408.9349365234375 C 435.8544006347656 -405.3143310546875 434.1973876953125 -401.9357299804688 432.3221740722656 -398.8925170898438 C 430.4459838867188 -395.8481140136719 428.3013916015625 -393.0563354492188 425.9476013183594 -390.5947265625 C 421.2357788085938 -385.6669311523438 415.7851867675781 -381.8437194824219 409.7475891113281 -379.2311096191406 C 403.7095947265625 -376.6185302734375 397.3505859375 -375.2937316894531 390.8475952148438 -375.2937316894531 Z M 390.8475952148438 -465.5285339355469 C 387.46240234375 -465.5285339355469 384.4595947265625 -464.8091125488281 381.9221801757812 -463.3903198242188 C 379.3841857910156 -461.9717102050781 377.2393798828125 -459.8141174316406 375.5475769042969 -456.9779357910156 C 373.8555908203125 -454.1409301757812 372.5687866210938 -450.7529296875 371.7225952148438 -446.90771484375 C 370.8761901855469 -443.0605163574219 370.4471740722656 -438.6503295898438 370.4471740722656 -433.7999267578125 C 370.4471740722656 -428.9481201171875 370.8761901855469 -424.5377197265625 371.7225952148438 -420.6915283203125 C 372.5683898925781 -416.8473205566406 373.8553771972656 -413.4595336914062 375.5475769042969 -410.6221313476562 C 377.2389831542969 -407.7855224609375 379.3837890625 -405.6277160644531 381.9221801757812 -404.2089233398438 C 384.4599914550781 -402.79052734375 387.4629821777344 -402.0713195800781 390.8475952148438 -402.0713195800781 C 394.2313842773438 -402.0713195800781 397.2339782714844 -402.79052734375 399.77197265625 -404.2089233398438 C 402.3099975585938 -405.6269226074219 404.4549865722656 -407.7845153808594 406.1475830078125 -410.6221313476562 C 407.8397827148438 -413.4595336914062 409.1268005371094 -416.8473205566406 409.9725952148438 -420.6915283203125 C 410.8190002441406 -424.5377197265625 411.2479858398438 -428.9481201171875 411.2479858398438 -433.7999267578125 C 411.2479858398438 -438.6503295898438 410.8190002441406 -443.0605163574219 409.9725952148438 -446.90771484375 C 409.1268005371094 -450.7513122558594 407.8397827148438 -454.1395263671875 406.1475830078125 -456.9779357910156 C 404.4561767578125 -459.8135070800781 402.3109741210938 -461.9709167480469 399.77197265625 -463.3903198242188 C 397.2345886230469 -464.8091125488281 394.2319946289062 -465.5285339355469 390.8475952148438 -465.5285339355469 Z M 318.8475952148438 -377.992919921875 L 318.8465881347656 -377.992919921875 L 289.4471740722656 -377.9939270019531 L 289.4471740722656 -442.575927734375 C 289.4471740722656 -446.3097229003906 289.177978515625 -449.5839233398438 288.6471862792969 -452.3075256347656 C 288.1171875 -455.03271484375 287.3097839355469 -457.2853088378906 286.247802734375 -459.0027160644531 C 285.1861877441406 -460.7195129394531 283.6887817382812 -462.0255126953125 281.7971801757812 -462.884521484375 C 279.9059753417969 -463.7431335449219 277.5677795410156 -464.1785278320312 274.8473815917969 -464.1785278320312 C 270.8675842285156 -464.1785278320312 267.3347778320312 -463.1941223144531 264.3469848632812 -461.2527160644531 C 261.3591918945312 -459.3091125488281 258.0959777832031 -456.3565368652344 254.6479949951172 -452.4769287109375 L 254.6479949951172 -377.9939270019531 L 225.2475891113281 -377.9939270019531 L 225.2475891113281 -535.7366943359375 L 254.6479949951172 -535.7369384765625 L 254.6479949951172 -497.0321350097656 L 253.0475921630859 -475.6545104980469 L 253.6469879150391 -475.6545104980469 C 257.3617858886719 -479.98291015625 261.93798828125 -483.8821105957031 267.2479858398438 -487.2439270019531 C 269.9017944335938 -488.9231262207031 272.8791809082031 -490.2003173828125 276.0975952148438 -491.0399169921875 C 279.3141784667969 -491.880126953125 282.8635864257812 -492.3061218261719 286.6473999023438 -492.3061218261719 C 292.2201843261719 -492.3061218261719 297.1069946289062 -491.2843322753906 301.1723937988281 -489.2689208984375 C 305.2369995117188 -487.2529296875 308.5929870605469 -484.1865234375 311.1471862792969 -480.1553344726562 C 313.7021789550781 -476.1233215332031 315.6453857421875 -471.2779235839844 316.9223937988281 -465.7537231445312 C 318.1999816894531 -460.2275085449219 318.8475952148438 -453.867919921875 318.8475952148438 -446.8519287109375 L 318.8475952148438 -377.9939270019531 L 318.8475952148438 -377.992919921875 Z M 135.2475891113281 -377.9939270019531 L 135.2455902099609 -377.9939270019531 L 135.2455902099609 -377.9949340820312 L 105.8471908569336 -377.9939270019531 L 105.8471908569336 -524.7098999023438 L 152.0477905273438 -524.7098999023438 C 159.0787811279297 -524.7098999023438 165.7739868164062 -523.9151000976562 171.9477844238281 -522.3473510742188 C 178.1191864013672 -520.7797241210938 183.5697937011719 -518.1296997070312 188.1477813720703 -514.4713134765625 C 190.4351806640625 -512.6434936523438 192.5129852294922 -510.4857177734375 194.3227844238281 -508.0579223632812 C 196.1299896240234 -505.6329345703125 197.7195892333984 -502.8695068359375 199.0475921630859 -499.8449096679688 C 200.3753814697266 -496.8179321289062 201.3845825195312 -493.4013366699219 202.0473937988281 -489.6899108886719 C 202.7109832763672 -485.9755249023438 203.0471801757812 -481.8589172363281 203.0471801757812 -477.4543151855469 C 203.0471801757812 -473.1969299316406 202.7021942138672 -469.1657104492188 202.0219879150391 -465.471923828125 C 201.3427886962891 -461.7773132324219 200.3081817626953 -458.313720703125 198.9477844238281 -455.177734375 C 197.5863952636719 -452.0401306152344 195.9631805419922 -449.1441345214844 194.1229858398438 -446.5701293945312 C 192.2801818847656 -443.992919921875 190.1687927246094 -441.6649169921875 187.8469848632812 -439.6509094238281 C 183.2025909423828 -435.6189270019531 177.7521820068359 -432.5905151367188 171.6469879150391 -430.6491088867188 C 165.5429840087891 -428.7081298828125 158.9487915039062 -427.72412109375 152.0477905273438 -427.72412109375 L 135.2475891113281 -427.72412109375 L 135.2475891113281 -377.9939270019531 Z M 135.2475891113281 -498.3821105957031 L 135.2475891113281 -454.0517272949219 L 150.2479858398438 -454.0519104003906 C 154.2313842773438 -454.0519104003906 157.7639923095703 -454.5439147949219 160.7471923828125 -455.5143127441406 C 163.7319946289062 -456.4839172363281 166.2551879882812 -457.9603271484375 168.2469940185547 -459.9027099609375 C 170.2373809814453 -461.8427124023438 171.7513885498047 -464.3029174804688 172.7469940185547 -467.2151184082031 C 173.7423858642578 -470.1279296875 174.2471923828125 -473.5729370117188 174.2471923828125 -477.4543151855469 C 174.2471923828125 -481.2619323730469 173.7341918945312 -484.5551147460938 172.7225952148438 -487.242919921875 C 171.7095947265625 -489.9317321777344 170.1699829101562 -492.0893249511719 168.1469879150391 -493.6561279296875 C 166.1237945556641 -495.22412109375 163.5919952392578 -496.4165344238281 160.6221923828125 -497.2005310058594 C 157.6517944335938 -497.9847106933594 154.1613922119141 -498.3821105957031 150.2479858398438 -498.3821105957031 L 135.2475891113281 -498.3821105957031 Z"/>
  </g>
</svg>
