<svg xmlns="http://www.w3.org/2000/svg" width="1299.2" height="276.223" viewBox="0 0 1299.2 276.223"><g fill="#fff61d" stroke-linecap="round" stroke-miterlimit="10"><path d="M640.4,276.224a90.244,90.244,0,0,1-17.9-1.687,47.1,47.1,0,0,1-14.3-5.176,26.833,26.833,0,0,1-9.4-8.888,23.67,23.67,0,0,1-3.4-12.827,21.457,21.457,0,0,1,3.85-12.432,33.514,33.514,0,0,1,11.55-9.845v-.9a26.374,26.374,0,0,1-7.1-7.426c-1.878-2.914-2.854-6.737-2.9-11.362l27.54-42.463a14.512,14.512,0,0,0,7.934,9.016A14.142,14.142,0,0,0,642,173.387a14.326,14.326,0,0,0,5.75-1.153,15,15,0,0,0,4.85-3.461,14.7,14.7,0,0,0,3.3-5.765,26.855,26.855,0,0,0,1.1-8.073,25.183,25.183,0,0,0-1.1-7.763,15.273,15.273,0,0,0-3.3-5.738,14.292,14.292,0,0,0-7.3-4.362l12.965-19.991.052.019.011,0,.027.01.036.013.01,0h40.2v24.3h-20a31.337,31.337,0,0,1,3,6.413,24.476,24.476,0,0,1,1.4,8.214,39.867,39.867,0,0,1-3.2,16.652,32.79,32.79,0,0,1-8.7,11.589,36.255,36.255,0,0,1-13,6.863,56.017,56.017,0,0,1-16.1,2.251,45.846,45.846,0,0,1-13.6-2.251,14.822,14.822,0,0,0-3.3,3.6,9.01,9.01,0,0,0-1.1,4.725,7.172,7.172,0,0,0,1,3.854,6.981,6.981,0,0,0,3,2.56c2.654,1.269,6.96,1.913,12.8,1.913h18.4a81.974,81.974,0,0,1,17.275,1.632,39.171,39.171,0,0,1,12.625,4.894,20.651,20.651,0,0,1,7.725,8.664,29.961,29.961,0,0,1,2.576,12.939,33.644,33.644,0,0,1-1.05,8.438,32.224,32.224,0,0,1-3.15,7.763,38.781,38.781,0,0,1-11.8,12.714,60.867,60.867,0,0,1-18.6,8.326A91.991,91.991,0,0,1,640.4,276.224Zm-14-44.555a19.662,19.662,0,0,0-5.4,5.289,10.749,10.749,0,0,0-1.6,5.738,9.33,9.33,0,0,0,1.675,5.513,12.528,12.528,0,0,0,5.025,3.938c4.443,2.09,10.667,3.15,18.5,3.15a56.543,56.543,0,0,0,10.849-.956,32.18,32.18,0,0,0,8.55-2.869,16.28,16.28,0,0,0,5.55-4.332,8.63,8.63,0,0,0,1.85-5.344,8.236,8.236,0,0,0-1.1-4.444,6.259,6.259,0,0,0-3.3-2.532c-2.92-1.045-7.294-1.575-13-1.575H641.6c-3.588,0-6.582-.113-8.9-.337a30.068,30.068,0,0,1-6.3-1.238Zm587.2,40.73a56.424,56.424,0,0,1-8.2-.562,37.811,37.811,0,0,1-7-1.688l5.2-25.2a23.232,23.232,0,0,0,7.8,1.35,26.816,26.816,0,0,0,7.675-1.013,16.5,16.5,0,0,0,5.825-3.037,24.375,24.375,0,0,0,7.3-10.577l2-5.85-43-108.688h29.2l16.6,47.931c1.857,5.226,3.607,10.715,5.2,16.314,1.6,5.627,3.214,11.418,4.8,17.214h.8c1.325-5.52,2.806-11.16,4.4-16.764,1.6-5.647,3.152-11.287,4.6-16.764l14.6-47.93h27.8L1260,229.868a130.813,130.813,0,0,1-7.8,18.565,52.977,52.977,0,0,1-9.6,13.276,36.087,36.087,0,0,1-12.5,7.988A46.482,46.482,0,0,1,1213.6,272.4Zm-254.2-2.251V117.131h24l2.2,11.251h.6a52.754,52.754,0,0,1,13.8-10.014,34.88,34.88,0,0,1,15.8-3.937,37.018,37.018,0,0,1,8.75,1.012,32.357,32.357,0,0,1,7.85,3.038,37.168,37.168,0,0,1,12.6,11.477,55,55,0,0,1,7.9,17.889,93.7,93.7,0,0,1,2.7,23.29,83.39,83.39,0,0,1-3.6,25.54,61.892,61.892,0,0,1-9.6,18.9,42.363,42.363,0,0,1-13.7,11.814,34.285,34.285,0,0,1-16.1,4.05,28.692,28.692,0,0,1-12.9-3.037,38.664,38.664,0,0,1-11.5-9.113h-.8l1.4,18.227v32.628H959.4Zm47.8-128.714a18.878,18.878,0,0,0-9.3,2.588,35.47,35.47,0,0,0-9.1,7.762v45.23a25.716,25.716,0,0,0,8.7,5.739,23.9,23.9,0,0,0,8.3,1.688,15.679,15.679,0,0,0,7.7-1.941,19.653,19.653,0,0,0,6.3-5.823,27.6,27.6,0,0,0,4.2-10.154,69.732,69.732,0,0,0,1.4-14.936,67.921,67.921,0,0,0-1.138-13.192,29.576,29.576,0,0,0-3.413-9.423,15.365,15.365,0,0,0-5.687-5.654A16.285,16.285,0,0,0,1007.2,141.433Zm-137.4,90.01a34.174,34.174,0,0,1-13.6-2.588,29.415,29.415,0,0,1-10.2-7.2,33.265,33.265,0,0,1-6.5-10.688,37.382,37.382,0,0,1-2.3-13.277,36.23,36.23,0,0,1,3.6-16.539,27.591,27.591,0,0,1,4.676-6.554,35.433,35.433,0,0,1,6.826-5.485c5.236-3.283,12.066-5.971,20.3-7.989a175.757,175.757,0,0,1,30-4.163,20,20,0,0,0-1.875-6.807,15.763,15.763,0,0,0-4.025-5.12,16.9,16.9,0,0,0-6.376-3.206,33.486,33.486,0,0,0-8.925-1.069,40.293,40.293,0,0,0-14.5,2.813,122.1,122.1,0,0,0-15.7,7.538l-10.4-21.6a112.017,112.017,0,0,1,21.9-10.8,70.081,70.081,0,0,1,11.974-3.206,73.073,73.073,0,0,1,12.525-1.069,52.654,52.654,0,0,1,18.6,3.094,38.583,38.583,0,0,1,14.2,9.282,39.13,39.13,0,0,1,9,15.7,74.818,74.818,0,0,1,3,22.333v63.907H908l-2.2-12.6H905a77.965,77.965,0,0,1-16.6,10.914,44,44,0,0,1-9.15,3.291A41.261,41.261,0,0,1,869.8,231.443Zm32.8-54.681a123.453,123.453,0,0,0-18.2,2.251,42.189,42.189,0,0,0-11.4,3.938,14.537,14.537,0,0,0-5.9,5.513,14.066,14.066,0,0,0-1.7,6.751,11.116,11.116,0,0,0,.925,4.7A8.163,8.163,0,0,0,869.1,203.2c2.454,1.717,5.852,2.587,10.1,2.587a26.456,26.456,0,0,0,12.4-3.038,57.953,57.953,0,0,0,11-7.538ZM1173,228.745h-29.4V164.161a51.86,51.86,0,0,0-.8-9.732,20.1,20.1,0,0,0-2.4-6.7,9.964,9.964,0,0,0-4.449-3.882,16.837,16.837,0,0,0-6.95-1.294,18.918,18.918,0,0,0-10.5,2.926,50.331,50.331,0,0,0-9.7,8.776v74.483h-29.4V71h29.4v38.7l-1.6,21.378h.6a60.37,60.37,0,0,1,13.6-11.589,31.3,31.3,0,0,1,8.85-3.8,41.917,41.917,0,0,1,10.551-1.266,32.494,32.494,0,0,1,14.524,3.038,24.745,24.745,0,0,1,9.976,9.112,46.369,46.369,0,0,1,5.775,14.4,84.654,84.654,0,0,1,1.925,18.9v68.86Zm-415.4,0H728.2V117.131h24l2.4,24.3h.6a65.077,65.077,0,0,1,8.15-11.955,45.238,45.238,0,0,1,9.65-8.411,42.591,42.591,0,0,1,10.8-4.978,40.8,40.8,0,0,1,11.6-1.66,41.8,41.8,0,0,1,10.7,1.125,45.059,45.059,0,0,1,8.5,3.375l-6,27.679a73.083,73.083,0,0,0-8.3-2.363,46.07,46.07,0,0,0-9.3-.788,28.646,28.646,0,0,0-9.124,1.519,36.849,36.849,0,0,0-8.976,4.557,34.3,34.3,0,0,0-8.275,8.327,65.992,65.992,0,0,0-7.025,12.826v58.056Zm-162.094-49.55v0c-.07-.822-.105-1.678-.105-2.546a21.464,21.464,0,0,1,3.849-12.432,33.515,33.515,0,0,1,11.551-9.845v-.9a26.391,26.391,0,0,1-7.1-7.426c-1.924-2.986-2.9-6.923-2.9-11.7a22.171,22.171,0,0,1,3.3-11.251,34.1,34.1,0,0,1,8.5-9.676v-.9a32.889,32.889,0,0,1-9.2-11.364,37.015,37.015,0,0,1-3.8-17.214,41.777,41.777,0,0,1,3.5-17.664,37.508,37.508,0,0,1,9.3-12.6,39.516,39.516,0,0,1,13.5-7.651A50.437,50.437,0,0,1,642,43.431a46.716,46.716,0,0,1,16.4,2.7h25.511L656.884,86.812c.076-.907.116-1.875.116-2.876a25.165,25.165,0,0,0-1.1-7.764,15.269,15.269,0,0,0-3.3-5.738,15.023,15.023,0,0,0-4.85-3.543A14.028,14.028,0,0,0,642,65.708a13.861,13.861,0,0,0-5.726,1.182,14.581,14.581,0,0,0-4.775,3.543,15.358,15.358,0,0,0-3.225,5.738,25.7,25.7,0,0,0-1.076,7.764,27.4,27.4,0,0,0,1.076,8.073,14.775,14.775,0,0,0,3.225,5.766,14.527,14.527,0,0,0,4.775,3.46A14.15,14.15,0,0,0,642,102.387a14.461,14.461,0,0,0,5.135-.9L633.8,121.558a53.517,53.517,0,0,1-5.4-1.394,14.832,14.832,0,0,0-3.3,3.6,9.015,9.015,0,0,0-1.1,4.725,6.7,6.7,0,0,0,1.893,4.967l-30.386,45.735ZM525,160.443a47.336,47.336,0,0,1-18.9-3.937,50.016,50.016,0,0,1-22.575-19.661,60.6,60.6,0,0,1-8.075-21.715,83.385,83.385,0,0,1,0-26.384,60.569,60.569,0,0,1,8.075-21.715A50.018,50.018,0,0,1,506.1,47.368a47.331,47.331,0,0,1,37.8,0,50.018,50.018,0,0,1,22.575,19.662,60.569,60.569,0,0,1,8.075,21.715,83.385,83.385,0,0,1,0,26.384,60.6,60.6,0,0,1-8.075,21.715A50.016,50.016,0,0,1,543.9,156.506,47.334,47.334,0,0,1,525,160.443Zm0-90.235a18.069,18.069,0,0,0-8.925,2.138,17.32,17.32,0,0,0-6.375,6.413,33.828,33.828,0,0,0-3.825,10.07,61.542,61.542,0,0,0-1.275,13.108,61.532,61.532,0,0,0,1.275,13.108,33.81,33.81,0,0,0,3.825,10.069,17.318,17.318,0,0,0,6.375,6.413,19.7,19.7,0,0,0,17.85,0,17.312,17.312,0,0,0,6.376-6.413,33.819,33.819,0,0,0,3.824-10.069,61.545,61.545,0,0,0,1.275-13.108,61.542,61.542,0,0,0-1.275-13.108,33.833,33.833,0,0,0-3.824-10.07,17.313,17.313,0,0,0-6.376-6.413A18.067,18.067,0,0,0,525,70.208ZM422.6,160.443c-7.832,0-14.56-1.211-20-3.6a34.342,34.342,0,0,1-13.3-10.014,39.6,39.6,0,0,1-7.3-15.414,84.816,84.816,0,0,1-2.2-20.028V72.008h-25V47.481l26.4-1.35,3.8-34.2h24.2v34.2h42V72.008h-42v39.155a41.772,41.772,0,0,0,1.25,10.942,16.786,16.786,0,0,0,3.75,7.173,15.462,15.462,0,0,0,6.5,3.966,30.546,30.546,0,0,0,9.5,1.321,44.434,44.434,0,0,0,10.3-1.125,70.823,70.823,0,0,0,9.3-2.925l5.2,23.853c-4.379,1.493-9.257,2.893-14.5,4.162A76.653,76.653,0,0,1,422.6,160.443Zm-137.6,0a47.333,47.333,0,0,1-18.9-3.937,50.013,50.013,0,0,1-22.576-19.661,60.59,60.59,0,0,1-8.075-21.715,83.437,83.437,0,0,1,0-26.384,60.732,60.732,0,0,1,3.15-11.674,54.706,54.706,0,0,1,11.3-18.339,49.616,49.616,0,0,1,16.2-11.364,47.329,47.329,0,0,1,37.8,0,49.617,49.617,0,0,1,16.2,11.364,54.7,54.7,0,0,1,11.3,18.339,60.689,60.689,0,0,1,3.15,11.674,83.373,83.373,0,0,1,0,26.384,60.6,60.6,0,0,1-8.075,21.715A50,50,0,0,1,303.9,156.506,47.334,47.334,0,0,1,285,160.443Zm0-90.235a18.069,18.069,0,0,0-8.925,2.138,17.318,17.318,0,0,0-6.375,6.413,33.818,33.818,0,0,0-3.825,10.07,61.544,61.544,0,0,0-1.275,13.108,61.534,61.534,0,0,0,1.275,13.108,33.816,33.816,0,0,0,3.825,10.069,17.312,17.312,0,0,0,6.375,6.413,19.7,19.7,0,0,0,17.85,0,17.314,17.314,0,0,0,6.376-6.413,33.817,33.817,0,0,0,3.825-10.069,61.536,61.536,0,0,0,1.275-13.108,61.546,61.546,0,0,0-1.275-13.108,33.834,33.834,0,0,0-3.825-10.07,17.318,17.318,0,0,0-6.376-6.413A18.067,18.067,0,0,0,285,70.208Zm-72,87.536H183.6V93.161a51.765,51.765,0,0,0-.8-9.732,20.08,20.08,0,0,0-2.4-6.7,9.976,9.976,0,0,0-4.451-3.882A16.834,16.834,0,0,0,169,71.558a18.922,18.922,0,0,0-10.5,2.926,50.373,50.373,0,0,0-9.7,8.776v74.483H119.4V0h29.4V38.7l-1.6,21.378h.6a60.411,60.411,0,0,1,13.6-11.589,31.264,31.264,0,0,1,8.85-3.8,41.851,41.851,0,0,1,10.55-1.266,32.511,32.511,0,0,1,14.525,3.037,24.743,24.743,0,0,1,9.975,9.113,46.317,46.317,0,0,1,5.775,14.4A84.652,84.652,0,0,1,213,88.885v68.858Zm-183.6,0H0V11.027H46.2A81.007,81.007,0,0,1,66.1,13.39a42.435,42.435,0,0,1,16.2,7.876,34.9,34.9,0,0,1,6.175,6.413A42.012,42.012,0,0,1,93.2,35.892a45.044,45.044,0,0,1,3,10.155,70.044,70.044,0,0,1,1,12.236,66.5,66.5,0,0,1-1.025,11.982A47.476,47.476,0,0,1,93.1,80.559a46.932,46.932,0,0,1-4.825,8.607A39.805,39.805,0,0,1,82,96.086a45.6,45.6,0,0,1-16.2,9,64.606,64.606,0,0,1-19.6,2.925H29.4Zm0-120.388v44.33h15a34.16,34.16,0,0,0,10.5-1.462,19,19,0,0,0,7.5-4.388,18.352,18.352,0,0,0,4.5-7.312,31.82,31.82,0,0,0,1.5-10.239,27.992,27.992,0,0,0-1.525-9.789A14.3,14.3,0,0,0,62.3,42.081a20.9,20.9,0,0,0-7.525-3.544A41.037,41.037,0,0,0,44.4,37.355Z" stroke="none"/><path d="M 973.4010009765625 256.1473693847656 L 974.8004150390625 256.1473388671875 L 974.8004150390625 238.0570220947266 L 973.4418334960938 220.3643493652344 L 973.4010009765625 218.642822265625 L 973.4010009765625 256.1473693847656 M 685.2189331054688 238.7137756347656 C 685.3399047851562 237.8165130615234 685.4008178710938 236.8908996582031 685.4008178710938 235.9443511962891 C 685.4008178710938 232.3321533203125 684.7418212890625 230.1925506591797 684.1871948242188 229.0297546386719 C 683.6154174804688 227.8299560546875 682.79541015625 226.9203491210938 681.6088256835938 226.1685485839844 C 680.1586303710938 225.2498779296875 678.2871704101562 224.4448852539062 676.1090087890625 223.7964782714844 C 678.54638671875 225.3709411621094 680.591796875 227.4267120361328 682.141845703125 229.8827514648438 C 683.7952880859375 232.5043792724609 684.8255615234375 235.4648132324219 685.2189331054688 238.7137756347656 M 1247.835327148438 222.2261657714844 L 1251.185668945312 212.5906219482422 L 1246.997192382812 212.5895538330078 L 1244.0224609375 212.5888366699219 L 1247.218872070312 220.6679534912109 L 1247.835327148438 222.2261657714844 M 1013.716796875 217.4113616943359 C 1016.611389160156 217.2462158203125 1019.453979492188 216.4380493164062 1022.18359375 215.0021514892578 C 1025.502197265625 213.2569580078125 1028.57763671875 210.5703582763672 1031.322875976562 207.0187530517578 C 1034.313842773438 203.14794921875 1036.78857421875 198.2199554443359 1038.679077148438 192.3707580566406 C 1040.617431640625 186.3741607666016 1041.600219726562 179.2301483154297 1041.600219726562 171.136962890625 C 1041.600219726562 163.8063507080078 1040.841186523438 157.1469573974609 1039.344360351562 151.3451538085938 C 1037.972778320312 146.03076171875 1036.017456054688 141.5367584228516 1033.5322265625 137.9879608154297 C 1031.326049804688 134.8375549316406 1028.683959960938 132.4065551757812 1025.680419921875 130.7627563476562 C 1024.29541015625 130.0051574707031 1022.797241210938 129.4265594482422 1021.236206054688 129.0451507568359 C 1019.563232421875 128.6373596191406 1017.734191894531 128.4307556152344 1015.800415039062 128.4307556152344 C 1015.642211914062 128.4307556152344 1015.483459472656 128.4329071044922 1015.324768066406 128.4371795654297 C 1017.651733398438 129.0418701171875 1019.859069824219 129.9184112548828 1021.933044433594 131.0635528564453 C 1026.372192382812 133.5159606933594 1030.040161132812 137.1065521240234 1032.836181640625 141.737548828125 C 1035.180053710938 145.6209564208984 1036.913208007812 150.2955627441406 1037.988403320312 155.6359558105469 C 1038.925659179688 160.2983551025391 1039.40087890625 165.6649627685547 1039.40087890625 171.5869598388672 C 1039.40087890625 178.3577575683594 1038.81640625 184.4091491699219 1037.663818359375 189.5739593505859 C 1036.318603515625 195.5993499755859 1034.128662109375 200.7449493408203 1031.154663085938 204.8679504394531 C 1028.081420898438 209.1277618408203 1024.425415039062 212.4507598876953 1020.290649414062 214.7429504394531 C 1018.195922851562 215.9048614501953 1015.999572753906 216.7955932617188 1013.716796875 217.4113616943359 M 865.2542724609375 217.0482330322266 C 863.7736206054688 216.3786468505859 862.3794555664062 215.587158203125 861.0756225585938 214.6749572753906 C 857.8412475585938 212.4125518798828 855.263427734375 209.3413543701172 853.6266479492188 205.8053588867188 C 852.1494140625 202.6223602294922 851.400390625 199.0591583251953 851.400390625 195.2145538330078 C 851.400390625 194.7623291015625 851.4108276367188 194.3121948242188 851.4315185546875 193.8642120361328 C 851.27783203125 195.0689239501953 851.2006225585938 196.3452911376953 851.2006225585938 197.6895599365234 C 851.2006225585938 200.7691497802734 851.669189453125 203.5685577392578 852.5938110351562 206.0107574462891 C 853.4927978515625 208.3859558105469 854.7568359375 210.4779510498047 856.3511962890625 212.2285614013672 C 857.7900390625 213.8085479736328 859.6044311523438 215.0773620605469 861.7471923828125 216.0013580322266 C 862.8065795898438 216.45849609375 863.9783325195312 216.8079376220703 865.2542724609375 217.0482330322266 M 1159.000610351562 214.7441864013672 L 1159.000610351562 159.8849487304688 C 1159.000610351562 153.9279479980469 1158.473999023438 148.6295623779297 1157.435791015625 144.1389617919922 C 1156.514404296875 140.1559600830078 1155.181274414062 136.7691497802734 1153.475830078125 134.0767517089844 C 1152.295166015625 132.2141571044922 1150.865600585938 130.8843536376953 1149.103393554688 130.0105590820312 C 1147.019775390625 128.9771575927734 1144.148803710938 128.4307556152344 1140.800415039062 128.4307556152344 C 1138.603759765625 128.4307556152344 1136.571899414062 128.6272735595703 1134.7470703125 129.0152130126953 C 1137.249145507812 129.4307556152344 1139.5869140625 130.1287078857422 1141.736572265625 131.1043548583984 C 1146.141235351562 133.1035614013672 1149.797241210938 136.3097534179688 1152.3056640625 140.3697509765625 C 1154.26123046875 143.5315551757812 1155.686645507812 147.3611602783203 1156.542846679688 151.7559509277344 C 1157.24462890625 155.3635559082031 1157.600463867188 159.5371551513672 1157.600463867188 164.1609497070312 L 1157.600463867188 214.7441101074219 L 1159.000610351562 214.7441864013672 M 743.5999755859375 214.7438812255859 L 743.5992431640625 170.6871490478516 L 743.5992431640625 167.8373565673828 L 744.7131958007812 165.21435546875 C 746.2111206054688 161.6872406005859 747.8304443359375 158.4165802001953 749.55517578125 155.4316864013672 L 742.2008056640625 155.4292449951172 L 742.2008056640625 214.7438354492188 L 743.5999755859375 214.7438812255859 M 1094.800048828125 214.7433624267578 L 1094.800048828125 154.2599487304688 L 1094.800048828125 148.9375610351562 L 1098.226684570312 145.0823516845703 L 1093.40087890625 145.0823516845703 L 1093.40087890625 214.7433624267578 L 1094.800048828125 214.7433624267578 M 977.2161865234375 205.2925567626953 L 974.8004150390625 202.9625549316406 L 974.8004150390625 197.0147552490234 L 974.8004150390625 151.7841491699219 L 974.8004150390625 146.5477600097656 L 978.23681640625 142.5965576171875 C 978.2994384765625 142.5245513916016 978.3618774414062 142.4530792236328 978.4246826171875 142.3815612792969 L 974.0736083984375 142.3815612792969 L 973.4010009765625 138.942626953125 L 973.4010009765625 205.2925567626953 L 977.2161865234375 205.2925567626953 M 917.9993896484375 204.6073760986328 L 917.9993896484375 170.0043029785156 L 916.6002197265625 170.0937194824219 L 916.6002197265625 176.761962890625 L 916.6002197265625 195.2145538330078 L 916.6002197265625 201.6121520996094 L 915.9918823242188 202.1387634277344 L 917.568603515625 202.1383514404297 L 917.9993896484375 204.6073760986328 M 917.9993896484375 169.5909271240234 L 917.9993896484375 164.8359527587891 C 917.9993896484375 157.7555541992188 917.2084350585938 151.6589508056641 915.648193359375 146.7137603759766 C 914.3193969726562 142.5011596679688 912.4017944335938 139.0819549560547 909.9500122070312 136.5527496337891 C 907.4142456054688 133.9377593994141 904.3554077148438 131.9429626464844 900.8578491210938 130.6233520507812 C 899.9964599609375 130.2983703613281 899.0982666015625 130.0091857910156 898.16455078125 129.7559814453125 C 900.9678955078125 130.9333801269531 903.4895629882812 132.4555969238281 905.6946411132812 134.3045501708984 C 908.8792114257812 136.9741516113281 911.4290161132812 140.2173614501953 913.2736206054688 143.9451599121094 C 914.9910278320312 147.4161529541016 916.0845947265625 151.3043518066406 916.5240478515625 155.5017547607422 L 917.9993896484375 169.5909271240234 M 414.1857604980469 145.7566528320312 C 410.2188720703125 144.1416778564453 406.8081665039062 141.8393096923828 404.0244140625 138.8935546875 C 400.7760314941406 135.4561614990234 398.397216796875 131.0597534179688 396.9554138183594 125.8315582275391 C 395.7908325195312 121.6141586303711 395.2004089355469 116.678955078125 395.2004089355469 111.162956237793 L 395.2004089355469 72.00815582275391 L 395.2004089355469 60.13075637817383 L 395.2004089355469 46.90583419799805 L 395.1148071289062 47.67635726928711 L 393.8008117675781 59.50455474853516 L 393.8000183105469 59.50459671020508 L 393.8000183105469 72.00815582275391 L 393.8000183105469 111.3877563476562 C 393.8000183105469 117.5845565795898 394.4056091308594 123.2045516967773 395.6006164550781 128.0935516357422 C 396.5750122070312 132.0831604003906 398.1420288085938 135.4551544189453 400.2584228515625 138.1163482666016 C 402.21142578125 140.5725555419922 404.8926086425781 142.5599517822266 408.2300109863281 144.0247497558594 C 409.9298706054688 144.7713317871094 411.9336853027344 145.3517456054688 414.1857604980469 145.7566528320312 M 199.0004272460938 143.7434844970703 L 199.0004272460938 88.88495635986328 C 199.0004272460938 82.92875671386719 198.4736175537109 77.63015747070312 197.4350128173828 73.1363525390625 C 196.5146179199219 69.15515899658203 195.1822204589844 65.77015686035156 193.4738159179688 63.07455444335938 C 192.2940216064453 61.2127571105957 190.8648223876953 59.88315582275391 189.1070251464844 59.01115417480469 C 187.0214233398438 57.97735595703125 184.1488189697266 57.43075561523438 180.8002166748047 57.43075561523438 C 178.6044464111328 57.43075561523438 176.5749053955078 57.6270751953125 174.7491607666016 58.01547622680664 C 177.2514343261719 58.43114852905273 179.5888977050781 59.12922668457031 181.7392272949219 60.10535430908203 C 186.1412200927734 62.10455703735352 189.7956237792969 65.30855560302734 192.3076171875 69.37095642089844 C 194.2634124755859 72.53355407714844 195.6880187988281 76.36415863037109 196.541015625 80.75035858154297 C 197.2438201904297 84.35435485839844 197.6000213623047 88.52995300292969 197.6000213623047 93.16095733642578 L 197.6000213623047 143.7434387207031 L 199.0004272460938 143.7434844970703 M 134.8006134033203 143.7429504394531 L 134.8006134033203 83.25995635986328 L 134.8006134033203 77.93775177001953 L 138.2272491455078 74.08235168457031 L 133.4004211425781 74.08235168457031 L 133.4004211425781 143.7429504394531 L 134.8006134033203 143.7429504394531 M 15.40042018890381 143.7429504394531 L 15.40042018890381 108.0127563476562 L 15.40042018890381 94.01275634765625 L 15.40042018890381 81.68515777587891 L 15.40042018890381 37.35475540161133 L 15.40042018890381 25.02695465087891 L 14.00002002716064 25.02695465087891 L 14.00002002716064 143.7429504394531 L 15.40042018890381 143.7429504394531 M 499.0279541015625 134.3825836181641 C 498.5580749511719 133.7073211669922 498.107421875 133.0081939697266 497.6762084960938 132.2853546142578 C 495.2134094238281 128.1555480957031 493.371826171875 123.3673553466797 492.2028198242188 118.0541534423828 C 491.1396179199219 113.2225570678711 490.6004333496094 107.7999572753906 490.6004333496094 101.9369583129883 C 490.6004333496094 96.07555389404297 491.1394348144531 90.65335845947266 492.2026062011719 85.82095336914062 C 493.3712158203125 80.50935363769531 495.2124328613281 75.7215576171875 497.6778259277344 71.58575439453125 C 498.1080322265625 70.86469268798828 498.5575561523438 70.16735076904297 499.0263366699219 69.49358367919922 C 497.7324523925781 70.97357940673828 496.5311889648438 72.61002349853516 495.4432067871094 74.37595367431641 C 494.0218200683594 76.68255615234375 492.7508239746094 79.28115844726562 491.6668090820312 82.09795379638672 C 490.6072082519531 84.85255432128906 489.7956237792969 87.87335205078125 489.2546081542969 91.07715606689453 C 488.6876220703125 94.43495178222656 488.4000244140625 98.08875274658203 488.4000244140625 101.9369583129883 C 488.4000244140625 105.7853546142578 488.6876220703125 109.4397583007812 489.2546081542969 112.7981567382812 C 489.7958068847656 116.0021591186523 490.6072082519531 119.0219573974609 491.6666259765625 121.7751541137695 C 492.7506103515625 124.5925521850586 494.0214233398438 127.1913528442383 495.4444274902344 129.5007629394531 C 496.53125 131.2649383544922 497.7325134277344 132.901123046875 499.0279541015625 134.3825836181641 M 310.9750061035156 134.3799285888672 C 312.2679748535156 132.9002075195312 313.4689636230469 131.2638702392578 314.5560302734375 129.4999542236328 C 315.9794311523438 127.1901550292969 317.2502136230469 124.591552734375 318.335205078125 121.770751953125 C 319.3926086425781 119.0245590209961 320.20361328125 116.0057525634766 320.7454223632812 112.7981567382812 C 321.3126220703125 109.4395523071289 321.6002197265625 105.7853546142578 321.6002197265625 101.9369583129883 C 321.6002197265625 98.08995819091797 321.3126220703125 94.4361572265625 320.7452087402344 91.07655334472656 C 320.20361328125 87.86895751953125 319.3926086425781 84.84935760498047 318.3340148925781 82.10015869140625 C 316.4247131347656 77.13928985595703 313.9541015625 72.90808868408203 310.9785766601562 69.49919891357422 C 311.4468078613281 70.17243194580078 311.8958740234375 70.86927795410156 312.3256225585938 71.58975219726562 C 314.7876281738281 75.71935272216797 316.6288146972656 80.50715637207031 317.7986145019531 85.82175445556641 C 318.8616333007812 90.65475463867188 319.400634765625 96.07675170898438 319.400634765625 101.9369583129883 C 319.400634765625 107.798957824707 318.8616333007812 113.2213516235352 317.7982177734375 118.0543518066406 C 316.6290283203125 123.3675537109375 314.7874145507812 128.1553497314453 312.3236083984375 132.287353515625 C 311.8934326171875 133.0084381103516 311.4437255859375 133.7061614990234 310.9750061035156 134.3799285888672 M 259.024169921875 134.3780364990234 C 258.5557250976562 133.7043914794922 258.106201171875 133.0066070556641 257.6764221191406 132.2857513427734 C 255.2132263183594 128.15576171875 253.3716125488281 123.3673553466797 252.2026214599609 118.0541534423828 C 251.1392211914062 113.2219543457031 250.6000213623047 107.7993545532227 250.6000213623047 101.9369583129883 C 250.6000213623047 96.07615661621094 251.1392211914062 90.65395355224609 252.2024230957031 85.82095336914062 C 253.371826171875 80.50635528564453 255.2134246826172 75.71755218505859 257.6770324707031 71.58695220947266 C 258.1064453125 70.86704254150391 258.5550842285156 70.17085266113281 259.0229797363281 69.49807739257812 C 256.0467529296875 72.90675354003906 253.5753326416016 77.13874816894531 251.6658172607422 82.09935760498047 C 250.6072235107422 84.85075378417969 249.7958221435547 87.87115478515625 249.2544250488281 91.07735443115234 C 248.6878204345703 94.43235778808594 248.4004211425781 98.08595275878906 248.4004211425781 101.9369583129883 C 248.4004211425781 105.7885589599609 248.6878204345703 109.442756652832 249.2546234130859 112.798957824707 C 249.7956237792969 116.0031585693359 250.6068267822266 119.0225524902344 251.6662139892578 121.7751541137695 C 252.7502136230469 124.5925521850586 254.0210266113281 127.1913528442383 255.4438171386719 129.5003509521484 C 256.5287170410156 131.2612609863281 257.7296142578125 132.8966827392578 259.024169921875 134.3780364990234 M 550.9779663085938 134.3760833740234 C 552.2708129882812 132.8966979980469 553.4708251953125 131.2620391845703 554.556396484375 129.5003509521484 C 555.9788208007812 127.1917572021484 557.2498168945312 124.5923538208008 558.3340454101562 121.7745590209961 C 559.3930053710938 119.0221557617188 560.2044067382812 116.001953125 560.74560546875 112.7993545532227 C 561.3128051757812 109.4391555786133 561.6004028320312 105.784553527832 561.6004028320312 101.9369583129883 C 561.6004028320312 98.08975219726562 561.3128051757812 94.43575286865234 560.74560546875 91.07655334472656 C 560.204833984375 87.87395477294922 559.3932495117188 84.85295867919922 558.3344116210938 82.10015869140625 C 557.2498168945312 79.28195190429688 555.9788208007812 76.68295288085938 554.5558471679688 74.37395477294922 C 553.4716186523438 72.61380767822266 552.2725219726562 70.98030090332031 550.9798583984375 69.50081634521484 C 551.4475708007812 70.17341613769531 551.8963623046875 70.86998748779297 552.3256225585938 71.58975219726562 C 554.7874145507812 75.71875762939453 556.62841796875 80.5069580078125 557.797607421875 85.82095336914062 C 558.86083984375 90.65395355224609 559.4000244140625 96.07615661621094 559.4000244140625 101.9369583129883 C 559.4000244140625 107.7981567382812 558.86083984375 113.2205581665039 557.7974243164062 118.053955078125 C 556.6278076171875 123.3693542480469 554.78662109375 128.1575622558594 552.3246459960938 132.2857513427734 C 551.89501953125 133.0060729980469 551.446044921875 133.7029724121094 550.9779663085938 134.3760833740234 M 797.9274291992188 129.7606811523438 L 798.2002563476562 128.5025329589844 C 797.3964233398438 128.4582977294922 796.4674072265625 128.4307556152344 795.3994140625 128.4307556152344 C 792.7666015625 128.4307556152344 790.2022094726562 128.7949523925781 787.775634765625 129.51416015625 C 787.6709594726562 129.5451354980469 787.5665283203125 129.5768280029297 787.4619750976562 129.6092529296875 C 788.6397705078125 129.5087585449219 789.8193359375 129.4583587646484 790.9992065429688 129.4583587646484 C 793.5082397460938 129.4583587646484 795.80615234375 129.5580444335938 797.9274291992188 129.7606811523438 M 1093.40087890625 127.8883666992188 L 1094.800048828125 109.1819610595703 L 1094.800048828125 85.00035858154297 L 1093.40087890625 85.00035858154297 L 1093.40087890625 127.8883666992188 M 70.77764892578125 87.1376953125 C 71.48467254638672 86.62454986572266 72.16780853271484 86.08198547363281 72.82582092285156 85.51075744628906 C 74.31742095947266 84.21675872802734 75.68402099609375 82.7071533203125 76.88661956787109 81.02515411376953 C 78.15402221679688 79.251953125 79.28822326660156 77.22035217285156 80.25701904296875 74.98755645751953 C 81.19522094726562 72.82475280761719 81.91822052001953 70.38395690917969 82.40621948242188 67.72955322265625 C 82.93302154541016 64.86955261230469 83.20001983642578 61.69115447998047 83.20001983642578 58.28255462646484 C 83.20001983642578 54.70115661621094 82.93701934814453 51.41275405883789 82.41822052001953 48.50815582275391 C 81.94962310791016 45.88375473022461 81.26361846923828 43.53115463256836 80.38162231445312 41.52035522460938 C 79.47882080078125 39.46395492553711 78.42501831054688 37.62155532836914 77.25161743164062 36.04675674438477 C 76.15621948242188 34.57755661010742 74.91461944580078 33.28435516357422 73.56041717529297 32.20235443115234 C 71.51874542236328 30.57069778442383 69.1737060546875 29.23410606384277 66.55806732177734 28.2081241607666 C 68.09352874755859 29.03919982910156 69.53382873535156 29.97497177124023 70.87222290039062 31.01215553283691 C 74.97381591796875 34.18875503540039 78.03681945800781 38.40975570678711 79.97821807861328 43.56255722045898 C 81.58522033691406 47.83235549926758 82.40001678466797 52.78495407104492 82.40001678466797 58.28255462646484 C 82.40001678466797 63.70775604248047 81.64202117919922 68.67615509033203 80.147216796875 73.04975891113281 C 78.43402099609375 78.06155395507812 75.75041961669922 82.37155914306641 72.17401885986328 85.85715484619141 C 71.72166442871094 86.29830169677734 71.25619506835938 86.72512817382812 70.77764892578125 87.1376953125 M 133.4004211425781 56.88650512695312 L 134.8006134033203 38.18077087402344 L 134.8006134033203 14.00005054473877 L 133.4004211425781 14.00006008148193 L 133.4004211425781 56.88650512695312 M 640.400390625 276.2235412597656 C 634.0296020507812 276.2235412597656 628.0074462890625 275.65576171875 622.500244140625 274.5359497070312 C 616.993408203125 273.416748046875 612.1820068359375 271.6751403808594 608.2001953125 269.3601684570312 C 604.2188110351562 267.0467529296875 601.056396484375 264.05615234375 598.8005981445312 260.4719543457031 C 596.544189453125 256.8899536132812 595.400390625 252.5745544433594 595.400390625 247.6451568603516 C 595.400390625 243.0909576416016 596.69580078125 238.9083557128906 599.2506103515625 235.2133483886719 C 601.804443359375 231.5189514160156 605.6902465820312 228.2065582275391 610.8004150390625 225.3683624267578 L 610.8004150390625 224.4681549072266 C 608.014404296875 222.5289611816406 605.6254272460938 220.0303497314453 603.7001953125 217.0423583984375 C 601.8215942382812 214.1281585693359 600.84619140625 210.3055572509766 600.8013916015625 205.6807556152344 L 628.3412475585938 163.2179565429688 C 629.054443359375 165.4211578369141 630.1168212890625 167.2901611328125 631.500244140625 168.7735595703125 C 632.927001953125 170.3049621582031 634.533447265625 171.4689483642578 636.2748413085938 172.2339477539062 C 638.0159912109375 172.9989624023438 639.9424438476562 173.386962890625 642.0006103515625 173.386962890625 C 644.0574340820312 173.386962890625 645.9920043945312 172.9989624023438 647.7506103515625 172.2341613769531 C 649.5076293945312 171.4695587158203 651.139404296875 170.3051605224609 652.600830078125 168.7735595703125 C 654.0602416992188 167.2429504394531 655.17041015625 165.3031616210938 655.9002075195312 163.0081481933594 C 656.6300048828125 160.7097625732422 657 157.9937591552734 657 154.9351501464844 C 657 152.0251617431641 656.6300048828125 149.4133605957031 655.9002075195312 147.1717529296875 C 655.1708374023438 144.9329528808594 654.0606079101562 143.0023498535156 652.600830078125 141.433349609375 C 650.489013671875 139.1669616699219 648.0324096679688 137.6991577148438 645.2990112304688 137.0709533691406 L 658.264404296875 117.0803527832031 C 658.2822265625 117.086555480957 658.2991943359375 117.0929565429688 658.31640625 117.0995559692383 L 658.327392578125 117.1037521362305 L 658.3550415039062 117.1139526367188 L 658.3904418945312 117.1271591186523 L 658.400390625 117.1305541992188 L 698.6006469726562 117.1305541992188 L 698.6006469726562 141.433349609375 L 678.6000366210938 141.433349609375 C 679.6624145507812 143.0769500732422 680.671630859375 145.2353515625 681.6006469726562 147.8467559814453 C 682.5292358398438 150.4615478515625 683 153.2249603271484 683 156.0601501464844 C 683 162.48095703125 681.9236450195312 168.0833587646484 679.8005981445312 172.7117614746094 C 677.6754150390625 177.3419494628906 674.7484130859375 181.2407531738281 671.1004028320312 184.3003540039062 C 667.4544067382812 187.3599548339844 663.0806274414062 189.6691589355469 658.1006469726562 191.1637573242188 C 653.1235961914062 192.6573486328125 647.7068481445312 193.41455078125 642.0006103515625 193.41455078125 C 637.7528076171875 193.41455078125 633.17724609375 192.6573486328125 628.400634765625 191.1637573242188 C 626.94140625 192.3585510253906 625.8306274414062 193.5701599121094 625.1004028320312 194.7645568847656 C 624.37060546875 195.9577484130859 624.0006103515625 197.5473480224609 624.0006103515625 199.4895629882812 C 624.0006103515625 200.9837493896484 624.3366088867188 202.2801513671875 624.9993896484375 203.3433532714844 C 625.6642456054688 204.407958984375 626.673828125 205.2689514160156 628.000244140625 205.9029541015625 C 630.6536254882812 207.1721496582031 634.96044921875 207.8157501220703 640.8008422851562 207.8157501220703 L 659.200439453125 207.8157501220703 C 665.7034301757812 207.8157501220703 671.515625 208.3647613525391 676.4752197265625 209.4473571777344 C 681.433837890625 210.5293579101562 685.681640625 212.1759490966797 689.1004028320312 214.341552734375 C 692.517822265625 216.5069580078125 695.1168212890625 219.4221496582031 696.8250122070312 223.0059509277344 C 698.5342407226562 226.5889587402344 699.4008178710938 230.9421539306641 699.4008178710938 235.9443511962891 C 699.4008178710938 238.8551483154297 699.0474243164062 241.6941528320312 698.3504028320312 244.3825531005859 C 697.6539916992188 247.0687561035156 696.59423828125 249.6807556152344 695.200439453125 252.1459503173828 C 692.4132080078125 257.0737609863281 688.4432373046875 261.3513488769531 683.400390625 264.8601684570312 C 678.3602294921875 268.3675537109375 672.1022338867188 271.1689453125 664.8004150390625 273.1861572265625 C 657.5026245117188 275.2015686035156 649.2933959960938 276.2235412597656 640.400390625 276.2235412597656 Z M 626.4010009765625 231.6681518554688 C 623.8792114257812 233.4611511230469 622.0621948242188 235.2405548095703 621 236.9567565917969 C 619.9388427734375 238.6739501953125 619.400634765625 240.6047515869141 619.400634765625 242.6949615478516 C 619.400634765625 244.7855529785156 619.9642333984375 246.6405487060547 621.075439453125 248.2083587646484 C 622.185791015625 249.7757568359375 623.8764038085938 251.1005554199219 626.1004028320312 252.145751953125 C 630.5433959960938 254.2359619140625 636.767822265625 255.2959594726562 644.6006469726562 255.2959594726562 C 648.584228515625 255.2959594726562 652.2344360351562 254.9743499755859 655.4501953125 254.3399505615234 C 658.67041015625 253.7051544189453 661.5469970703125 252.7399597167969 664.000244140625 251.4709625244141 C 666.455810546875 250.2017517089844 668.3232421875 248.7443542480469 669.5504150390625 247.1393585205078 C 670.7784423828125 245.5345611572266 671.4008178710938 243.7365570068359 671.4008178710938 241.7951507568359 C 671.4008178710938 240.004150390625 671.0303955078125 238.5087585449219 670.3002319335938 237.3509521484375 C 669.56982421875 236.1937561035156 668.4598388671875 235.3419494628906 667.0007934570312 234.8191528320312 C 664.0804443359375 233.7739562988281 659.7064208984375 233.2439575195312 654.000244140625 233.2439575195312 L 641.6002197265625 233.2439575195312 C 638.01220703125 233.2439575195312 635.0182495117188 233.1305541992188 632.7008056640625 232.9067535400391 C 630.37841796875 232.6831512451172 628.2588500976562 232.2665557861328 626.4008178710938 231.6681518554688 C 626.4010009765625 231.6681518554688 626.4010009765625 231.6681518554688 626.4010009765625 231.6681518554688 L 626.4008178710938 231.6681518554688 Z M 1213.6005859375 272.3987426757812 C 1210.683837890625 272.3987426757812 1207.925048828125 272.2093505859375 1205.40087890625 271.8361511230469 C 1202.876220703125 271.4627685546875 1200.520874023438 270.8945617675781 1198.400634765625 270.1477661132812 L 1203.600830078125 244.9451599121094 C 1206.12060546875 245.8407592773438 1208.744262695312 246.2951507568359 1211.400024414062 246.2951507568359 C 1214.25537109375 246.2951507568359 1216.837768554688 245.9545593261719 1219.075439453125 245.2825622558594 C 1221.314208984375 244.6111602783203 1223.274047851562 243.58935546875 1224.900024414062 242.2451629638672 C 1228.15185546875 239.5567626953125 1230.607666015625 235.9981536865234 1232.200073242188 231.6683502197266 L 1234.200561523438 225.818359375 L 1191.199584960938 117.1307525634766 L 1220.400024414062 117.1305541992188 L 1237.000610351562 165.0609588623047 C 1238.857666015625 170.2869567871094 1240.607421875 175.7757568359375 1242.201049804688 181.3753509521484 C 1243.800048828125 187.001953125 1245.414672851562 192.7937622070312 1247.000610351562 198.5895538330078 L 1247.800659179688 198.5897521972656 C 1249.125854492188 193.0701599121094 1250.6064453125 187.4297485351562 1252.200561523438 181.8255615234375 C 1253.805053710938 176.1785583496094 1255.352661132812 170.5381622314453 1256.800659179688 165.0609588623047 L 1271.400390625 117.1307525634766 L 1299.200439453125 117.1305541992188 L 1260.000244140625 229.8683624267578 C 1257.613403320312 236.8819580078125 1254.9892578125 243.1279602050781 1252.200561523438 248.4335479736328 C 1249.414672851562 253.733154296875 1246.1845703125 258.199951171875 1242.600463867188 261.7095642089844 C 1239.015869140625 265.2195434570312 1234.81005859375 267.9071655273438 1230.100219726562 269.69775390625 C 1225.389038085938 271.4899597167969 1219.837646484375 272.3987426757812 1213.6005859375 272.3987426757812 Z M 959.4010009765625 270.1477661132812 L 959.4010009765625 117.1307525634766 L 983.400390625 117.1305541992188 L 985.600830078125 128.3815612792969 L 986.200439453125 128.3815612792969 C 990.181396484375 124.3505554199219 994.8250122070312 120.9813537597656 1000.000793457031 118.3679580688477 C 1005.175048828125 115.7553558349609 1010.490844726562 114.4307556152344 1015.800415039062 114.4307556152344 C 1018.849792480469 114.4307556152344 1021.793640136719 114.771354675293 1024.550170898438 115.4429550170898 C 1027.303833007812 116.1157531738281 1029.945068359375 117.1377563476562 1032.399780273438 118.4807586669922 C 1037.309204101562 121.1673583984375 1041.548583984375 125.0287551879883 1045 129.9575500488281 C 1048.4501953125 134.8843536376953 1051.108276367188 140.9031524658203 1052.900268554688 147.8467559814453 C 1054.691772460938 154.7913513183594 1055.600219726562 162.6273498535156 1055.600219726562 171.136962890625 C 1055.600219726562 180.6941528320312 1054.389038085938 189.2871551513672 1052.000244140625 196.6769561767578 C 1049.612060546875 204.0671539306641 1046.382080078125 210.4267578125 1042.40087890625 215.5789489746094 C 1038.417602539062 220.7321624755859 1033.807861328125 224.7069549560547 1028.700073242188 227.3931579589844 C 1023.591430664062 230.0805511474609 1018.174621582031 231.4431610107422 1012.600830078125 231.4431610107422 C 1008.088012695312 231.4431610107422 1003.747619628906 230.4213562011719 999.700439453125 228.4059600830078 C 995.6530151367188 226.3909606933594 991.7839965820312 223.3247528076172 988.2008056640625 219.2925567626953 L 987.4008178710938 219.2925567626953 L 988.8004150390625 237.5191497802734 L 988.8004150390625 270.1469421386719 L 988.7982177734375 270.1469421386719 L 988.7982177734375 270.1467590332031 L 959.4010009765625 270.1477661132812 Z M 1007.200805664062 141.433349609375 C 1004.082824707031 141.433349609375 1000.95361328125 142.3041534423828 997.9002075195312 144.0217590332031 C 994.8480224609375 145.7393493652344 991.7864379882812 148.3509521484375 988.8004150390625 151.7841491699219 L 988.8004150390625 197.0147552490234 C 991.5880126953125 199.7033538818359 994.5151977539062 201.6341552734375 997.5006103515625 202.7531585693359 C 1000.48681640625 203.8729553222656 1003.279235839844 204.4407501220703 1005.800415039062 204.4407501220703 C 1008.587829589844 204.4407501220703 1011.17822265625 203.7879486083984 1013.5 202.5001525878906 C 1015.821838378906 201.2129516601562 1017.941833496094 199.2537536621094 1019.800842285156 196.6769561767578 C 1021.658447265625 194.1017608642578 1023.071044921875 190.6853485107422 1024.000244140625 186.5233612060547 C 1024.929565429688 182.3589477539062 1025.40087890625 177.3337554931641 1025.40087890625 171.5869598388672 C 1025.40087890625 166.5895538330078 1025.01806640625 162.1509552001953 1024.263061523438 158.3947601318359 C 1023.507629394531 154.6427612304688 1022.359436035156 151.4723510742188 1020.850219726562 148.9719543457031 C 1019.340209960938 146.4709625244141 1017.427001953125 144.5685577392578 1015.163208007812 143.3179626464844 C 1012.898193359375 142.0673522949219 1010.21923828125 141.433349609375 1007.200805664062 141.433349609375 Z M 869.8004150390625 231.4431610107422 C 864.7550048828125 231.4431610107422 860.179443359375 230.5725555419922 856.2006225585938 228.8557586669922 C 852.2206420898438 227.1397552490234 848.7886352539062 224.7169494628906 846 221.6547546386719 C 843.212646484375 218.5939483642578 841.0260009765625 214.9977569580078 839.500244140625 210.9663543701172 C 837.9742431640625 206.9355621337891 837.2006225585938 202.46875 837.2006225585938 197.6895599365234 C 837.2006225585938 191.4173583984375 838.4114379882812 185.8527526855469 840.7998046875 181.1503601074219 C 841.9938354492188 178.7989501953125 843.5668334960938 176.5939483642578 845.4754028320312 174.5965576171875 C 847.3838500976562 172.5987548828125 849.6802368164062 170.7537536621094 852.301025390625 169.1117553710938 C 857.5368041992188 165.8289489746094 864.3666381835938 163.1409606933594 872.6004028320312 161.12255859375 C 880.82763671875 159.1069488525391 890.9208374023438 157.7063598632812 902.6002197265625 156.9599609375 C 902.3344116210938 154.4217529296875 901.7040405273438 152.1313629150391 900.7254028320312 150.1533508300781 C 899.74560546875 148.1733551025391 898.3914184570312 146.4507598876953 896.7006225585938 145.0333557128906 C 895.0101928710938 143.6159515380859 892.864990234375 142.537353515625 890.3250122070312 141.8275604248047 C 887.7864379882812 141.1181488037109 884.7836303710938 140.7585601806641 881.3995971679688 140.7585601806641 C 876.6234130859375 140.7585601806641 871.7452392578125 141.7047576904297 866.900634765625 143.5709533691406 C 862.0594482421875 145.4369506835938 856.7767944335938 147.9729614257812 851.2001953125 151.1091613769531 L 840.7998046875 129.5073547363281 C 847.5714111328125 125.1749572753906 854.9398193359375 121.5411529541016 862.700439453125 118.7055587768555 C 866.580810546875 117.2877578735352 870.609619140625 116.2091522216797 874.6748046875 115.4999542236328 C 878.7408447265625 114.7905578613281 882.9550170898438 114.4307556152344 887.2001953125 114.4307556152344 C 894.1010131835938 114.4307556152344 900.3591918945312 115.4717559814453 905.8004150390625 117.5249557495117 C 911.2408447265625 119.5773544311523 916.0184326171875 122.7001571655273 920.0006103515625 126.806755065918 C 923.9830322265625 130.9147491455078 927.0106201171875 136.1957550048828 928.9998168945312 142.5025482177734 C 930.990234375 148.8107604980469 931.9993896484375 156.3247528076172 931.9993896484375 164.8359527587891 L 931.9993896484375 228.7433624267578 L 907.9992065429688 228.7433624267578 L 905.8004150390625 216.141357421875 L 905.000244140625 216.1415557861328 C 899.9556274414062 220.4721527099609 894.37060546875 224.1443481445312 888.4008178710938 227.0557556152344 C 885.4166259765625 228.5109558105469 882.3380126953125 229.6181488037109 879.2504272460938 230.3469543457031 C 876.1633911132812 231.0743560791016 872.9838256835938 231.4431610107422 869.8004150390625 231.4431610107422 Z M 902.6002197265625 176.761962890625 C 895.3024291992188 177.2107543945312 889.17919921875 177.9681549072266 884.400390625 179.0127563476562 C 879.623046875 180.0587615966797 875.7874145507812 181.3835601806641 873 182.9505615234375 C 870.2131958007812 184.5177612304688 868.2283935546875 186.37255859375 867.1004028320312 188.4637603759766 C 865.972412109375 190.5547485351562 865.400390625 192.8259582519531 865.400390625 195.2145538330078 C 865.400390625 197.0083618164062 865.7116088867188 198.5887603759766 866.3256225585938 199.9117584228516 C 866.9390258789062 201.2367553710938 867.8724365234375 202.3441619873047 869.1004028320312 203.2031555175781 C 871.554443359375 204.9199523925781 874.95263671875 205.7905578613281 879.2001953125 205.7905578613281 C 883.5806274414062 205.7905578613281 887.7526245117188 204.7685546875 891.6004028320312 202.7529602050781 C 895.4510498046875 200.7359619140625 899.1517944335938 198.1997528076172 902.6002197265625 195.2145538330078 L 902.6002197265625 176.761962890625 Z M 1173.000610351562 228.7449493408203 L 1172.9990234375 228.7441558837891 L 1172.998413085938 228.7439575195312 L 1143.600463867188 228.7433624267578 L 1143.600463867188 164.1609497070312 C 1143.600463867188 160.4321594238281 1143.331176757812 157.157958984375 1142.800415039062 154.4293518066406 C 1142.269653320312 151.7049560546875 1141.461669921875 149.4521484375 1140.399047851562 147.7341613769531 C 1139.338012695312 146.0167541503906 1137.841186523438 144.7109527587891 1135.950439453125 143.8527526855469 C 1134.058227539062 142.9939575195312 1131.719848632812 142.558349609375 1129.000610351562 142.558349609375 C 1125.01904296875 142.558349609375 1121.48583984375 143.5427551269531 1118.499389648438 145.4841613769531 C 1115.51416015625 147.4247589111328 1112.250854492188 150.3773498535156 1108.800048828125 154.2599487304688 L 1108.800048828125 228.7433624267578 L 1079.40087890625 228.7433624267578 L 1079.40087890625 71.00035858154297 L 1108.800048828125 71.00035858154297 L 1108.800048828125 109.7047576904297 L 1107.201049804688 131.0823516845703 L 1107.800170898438 131.0823516845703 C 1111.515014648438 126.7529525756836 1116.091064453125 122.8535537719727 1121.400024414062 119.4929580688477 C 1124.053833007812 117.8139572143555 1127.031372070312 116.5365524291992 1130.249877929688 115.6961517333984 C 1133.468994140625 114.8565521240234 1137.01904296875 114.4307556152344 1140.800415039062 114.4307556152344 C 1146.373779296875 114.4307556152344 1151.260375976562 115.4527587890625 1155.324829101562 117.4689559936523 C 1159.388427734375 119.4839553833008 1162.744873046875 122.5497589111328 1165.300415039062 126.5815582275391 C 1167.854370117188 130.6137542724609 1169.797607421875 135.4593505859375 1171.075561523438 140.9835510253906 C 1172.35302734375 146.5091552734375 1173.000610351562 152.8687591552734 1173.000610351562 159.8849487304688 L 1173.000610351562 228.7433624267578 L 1173.000610351562 228.7449493408203 Z M 757.6002197265625 228.7443542480469 L 757.5992431640625 228.7433624267578 L 757.597412109375 228.7433624267578 L 728.2008056640625 228.7433624267578 L 728.2008056640625 117.1307525634766 L 752.2001953125 117.1305541992188 L 754.6004028320312 141.433349609375 L 755.2008056640625 141.4335479736328 C 757.6552124023438 136.8793487548828 760.3976440429688 132.8569488525391 763.3504028320312 129.478759765625 C 766.3008422851562 126.1027526855469 769.5472412109375 123.2729568481445 773.000244140625 121.0679550170898 C 776.4506225585938 118.8655548095703 780.0844116210938 117.1907577514648 783.8002319335938 116.0903549194336 C 787.5173950195312 114.9889526367188 791.4197998046875 114.4307556152344 795.3994140625 114.4307556152344 C 799.7802124023438 114.4307556152344 803.3804321289062 114.8091583251953 806.1004028320312 115.5557556152344 C 808.8178100585938 116.3013534545898 811.6777954101562 117.4367523193359 814.600830078125 118.9305572509766 L 808.599609375 146.6091613769531 C 805.5527954101562 145.5657501220703 802.7608032226562 144.7703552246094 800.2998046875 144.2457580566406 C 797.8392333984375 143.7233581542969 794.7100219726562 143.4583587646484 790.9992065429688 143.4583587646484 C 787.9484252929688 143.4583587646484 784.8786010742188 143.9695587158203 781.875 144.9775543212891 C 778.8743896484375 145.9849548339844 775.8544311523438 147.5181579589844 772.8994140625 149.5343627929688 C 769.9450073242188 151.5527496337891 767.1610107421875 154.3541564941406 764.6246337890625 157.8611602783203 C 762.0880126953125 161.3681488037109 759.7242431640625 165.683349609375 757.5992431640625 170.6869506835938 L 757.6002197265625 228.7433624267578 L 757.6002197265625 228.7443542480469 Z M 595.505615234375 179.1947479248047 L 595.505615234375 179.1919555664062 C 595.435791015625 178.3699493408203 595.400390625 177.5133514404297 595.400390625 176.645751953125 C 595.400390625 172.0917510986328 596.6954345703125 167.9087524414062 599.2496337890625 164.2133483886719 C 601.8058471679688 160.5167541503906 605.6920166015625 157.2041625976562 610.8004150390625 154.3679504394531 L 610.8004150390625 153.4681549072266 C 608.0132446289062 151.5271606445312 605.6243896484375 149.0285491943359 603.7001953125 146.0423583984375 C 601.7762451171875 143.0563507080078 600.8004150390625 139.1191558837891 600.8004150390625 134.3403625488281 C 600.8004150390625 130.6075592041016 601.91064453125 126.8221588134766 604.0997924804688 123.0897521972656 C 606.2900390625 119.3569564819336 609.1500244140625 116.1013565063477 612.6004028320312 113.4135589599609 L 612.6004028320312 112.5127563476562 C 609.0173950195312 109.8259582519531 605.9219970703125 106.002555847168 603.400390625 101.1491546630859 C 600.87841796875 96.29655456542969 599.5997924804688 90.50475311279297 599.5997924804688 83.93515777587891 C 599.5997924804688 77.21735382080078 600.7774047851562 71.27415466308594 603.1000366210938 66.270751953125 C 605.4236450195312 61.26675415039062 608.5527954101562 57.02695465087891 612.400390625 53.6689567565918 C 616.2482299804688 50.30975723266602 620.7902221679688 47.73575592041016 625.900390625 46.01815414428711 C 631.0101928710938 44.30115509033203 636.427001953125 43.43075561523438 642.0006103515625 43.43075561523438 C 648.1036376953125 43.43075561523438 653.6212158203125 44.33895492553711 658.400390625 46.13055419921875 L 683.9118041992188 46.13055419921875 L 656.884033203125 86.81155395507812 C 656.96044921875 85.90415191650391 657 84.93655395507812 657 83.93515777587891 C 657 81.02295684814453 656.6300048828125 78.41095733642578 655.9002075195312 76.17155456542969 C 655.1700439453125 73.93175506591797 654.0596313476562 72.00095367431641 652.6000366210938 70.43335723876953 C 651.1390380859375 68.86555480957031 649.5072021484375 67.67335510253906 647.7498168945312 66.88995361328125 C 645.990234375 66.10595703125 644.0560302734375 65.70835876464844 642.0006103515625 65.70835876464844 C 639.9443969726562 65.70835876464844 638.0180053710938 66.10595703125 636.2748413085938 66.88995361328125 C 634.533447265625 67.67395782470703 632.92724609375 68.86615753173828 631.500244140625 70.43335723876953 C 630.072998046875 72.00295257568359 628.988037109375 73.93335723876953 628.275390625 76.17155456542969 C 627.5618286132812 78.41155242919922 627.2000122070312 81.02355194091797 627.2000122070312 83.93515777587891 C 627.2000122070312 86.99595642089844 627.5618286132812 89.712158203125 628.275390625 92.00815582275391 C 628.9884033203125 94.30295562744141 630.0732421875 96.24295806884766 631.500244140625 97.77415466308594 C 632.926025390625 99.30475616455078 634.5324096679688 100.4687576293945 636.2748413085938 101.2339553833008 C 638.0173950195312 101.9989547729492 639.943603515625 102.3869552612305 642.0006103515625 102.3869552612305 C 643.8234252929688 102.3869552612305 645.5512084960938 102.0829544067383 647.1360473632812 101.4833526611328 L 633.798828125 121.5579528808594 C 632.0455932617188 121.2051544189453 630.2294311523438 120.735954284668 628.3998413085938 120.1635589599609 C 626.9402465820312 121.3595581054688 625.82958984375 122.5711517333984 625.1004028320312 123.7645568847656 C 624.37060546875 124.9587554931641 624.0006103515625 126.5483551025391 624.0006103515625 128.4895629882812 C 624.0006103515625 130.5449523925781 624.6373901367188 132.2161560058594 625.8932495117188 133.4567565917969 L 595.5074462890625 179.1919555664062 L 595.505615234375 179.1947479248047 Z M 525.0006103515625 160.4431610107422 C 518.4970092773438 160.4431610107422 512.1376342773438 159.1183624267578 506.099609375 156.5057525634766 C 500.0616149902344 153.8927612304688 494.6114196777344 150.0695495605469 489.900634765625 145.1421508789062 C 487.54541015625 142.6801605224609 485.4004211425781 139.8883514404297 483.5250244140625 136.8443603515625 C 481.6508178710938 133.8029479980469 479.9938049316406 130.4243621826172 478.6002197265625 126.8019561767578 C 477.2064208984375 123.1799545288086 476.1466064453125 119.2529525756836 475.4502258300781 115.129753112793 C 474.7532348632812 111.0021591186523 474.4000244140625 106.5635528564453 474.4000244140625 101.9369583129883 C 474.4000244140625 97.31055450439453 474.7532348632812 92.87235260009766 475.4502258300781 88.74555206298828 C 476.1462097167969 84.62375640869141 477.2060241699219 80.69595336914062 478.6002197265625 77.07155609130859 C 479.9942321777344 73.44955444335938 481.6510314941406 70.07115173339844 483.5250244140625 67.03055572509766 C 485.4004211425781 63.98615646362305 487.54541015625 61.19435501098633 489.900634765625 58.73235702514648 C 494.6104125976562 53.80575561523438 500.0604248046875 49.98235702514648 506.099609375 47.36815643310547 C 512.1378173828125 44.75555419921875 518.4970092773438 43.43075561523438 525.0006103515625 43.43075561523438 C 531.5036010742188 43.43075561523438 537.8624267578125 44.75555419921875 543.900634765625 47.36815643310547 C 549.9378051757812 49.98135375976562 555.3880004882812 53.80475616455078 560.099609375 58.73235702514648 C 562.455810546875 61.19595718383789 564.600830078125 63.98775482177734 566.4754028320312 67.03055572509766 C 568.3492431640625 70.07115173339844 570.0062255859375 73.44955444335938 571.4002075195312 77.07155609130859 C 572.794189453125 80.69595336914062 573.854248046875 84.62375640869141 574.5502319335938 88.74555206298828 C 575.2470092773438 92.87235260009766 575.6004028320312 97.31055450439453 575.6004028320312 101.9369583129883 C 575.6004028320312 106.5635528564453 575.2470092773438 111.0021591186523 574.5502319335938 115.129753112793 C 573.8536376953125 119.2529525756836 572.7938232421875 123.1799545288086 571.4002075195312 126.8019561767578 C 570.0064086914062 130.4243621826172 568.3494262695312 133.8029479980469 566.4754028320312 136.8443603515625 C 564.6006469726562 139.8871612548828 562.4556274414062 142.678955078125 560.099609375 145.1421508789062 C 555.388427734375 150.0695495605469 549.9384155273438 153.8927612304688 543.900634765625 156.5057525634766 C 537.8626098632812 159.1183624267578 531.5036010742188 160.4431610107422 525.0006103515625 160.4431610107422 Z M 525.0006103515625 70.20835876464844 C 521.6154174804688 70.20835876464844 518.6126098632812 70.92775726318359 516.075439453125 72.3465576171875 C 513.5374145507812 73.76515197753906 511.3926086425781 75.92275238037109 509.7004089355469 78.75895690917969 C 508.0082092285156 81.59775543212891 506.7212219238281 84.98575592041016 505.8756103515625 88.82915496826172 C 505.0292053222656 92.67635345458984 504.6004333496094 97.08655548095703 504.6004333496094 101.9369583129883 C 504.6004333496094 106.7887573242188 505.0292053222656 111.1991577148438 505.8756103515625 115.0453567504883 C 506.7214050292969 118.8893585205078 508.0082092285156 122.2771530151367 509.7004089355469 125.1147537231445 C 511.3932189941406 127.9523544311523 513.5382080078125 130.1101531982422 516.075439453125 131.5279541015625 C 518.6132202148438 132.9463500976562 521.6162109375 133.6655578613281 525.0006103515625 133.6655578613281 C 528.3846435546875 133.6655578613281 531.38720703125 132.9463500976562 533.925048828125 131.5279541015625 C 536.4634399414062 130.1099548339844 538.6083984375 127.9521560668945 540.3005981445312 125.1147537231445 C 541.9918212890625 122.2789535522461 543.2784423828125 118.8909530639648 544.1246337890625 115.0453567504883 C 544.9710083007812 111.1981582641602 545.4000244140625 106.787956237793 545.4000244140625 101.9369583129883 C 545.4000244140625 97.08655548095703 544.9710083007812 92.67635345458984 544.1246337890625 88.82915496826172 C 543.2786254882812 84.98395538330078 541.9920043945312 81.59595489501953 540.3005981445312 78.75895690917969 C 538.608642578125 75.92215728759766 536.4634399414062 73.76495361328125 533.925048828125 72.3465576171875 C 531.3876342773438 70.92775726318359 528.3851928710938 70.20835876464844 525.0006103515625 70.20835876464844 Z M 422.6004333496094 160.4431610107422 C 414.7688293457031 160.4431610107422 408.0400085449219 159.2319488525391 402.6006164550781 156.8431549072266 C 397.1596069335938 154.4551544189453 392.684814453125 151.0859527587891 389.3004150390625 146.8297576904297 C 385.9152221679688 142.5729522705078 383.4590148925781 137.386962890625 382.0004272460938 131.4155578613281 C 380.5404052734375 125.4419555664062 379.8000183105469 118.7037582397461 379.8000183105469 111.3877563476562 L 379.8000183105469 72.00815582275391 L 354.7998046875 72.00815582275391 L 354.7998046875 47.48055648803711 L 381.2004089355469 46.13055419921875 L 385.0002136230469 11.9269552230835 L 409.2004089355469 11.9269552230835 L 409.2004089355469 46.13075637817383 L 451.2004089355469 46.13055419921875 L 451.2004089355469 72.00815582275391 L 409.2004089355469 72.00815582275391 L 409.2004089355469 111.162956237793 C 409.2004089355469 115.4191589355469 409.6208190917969 119.1007537841797 410.4504089355469 122.1049575805664 C 411.27880859375 125.1089553833008 412.5404052734375 127.5219573974609 414.1998291015625 129.2779541015625 C 415.857421875 131.0319519042969 418.04443359375 132.3663482666016 420.6996154785156 133.2441558837891 C 423.3532104492188 134.1207580566406 426.5494079589844 134.5653533935547 430.2000122070312 134.5653533935547 C 433.9168090820312 134.5653533935547 437.3824157714844 134.1869506835938 440.5004272460938 133.4403533935547 C 443.6134338378906 132.6959533691406 446.7422180175781 131.7119598388672 449.8002319335938 130.5155487060547 L 455.0002136230469 154.3681488037109 C 450.6216125488281 155.8611602783203 445.743408203125 157.2611541748047 440.5004272460938 158.5305480957031 C 435.2596130371094 159.7997589111328 429.2372131347656 160.4431610107422 422.6004333496094 160.4431610107422 Z M 285.0004272460938 160.4431610107422 C 278.4972229003906 160.4431610107422 272.1382141113281 159.1183624267578 266.1004333496094 156.5057525634766 C 260.0624084472656 153.8929595947266 254.6120147705078 150.0697479248047 249.9004211425781 145.1421508789062 C 247.543212890625 142.6767578125 245.3982238769531 139.8851623535156 243.5246124267578 136.8443603515625 C 241.6504211425781 133.8029479980469 239.9934234619141 130.4243621826172 238.5998229980469 126.8019561767578 C 237.2062225341797 123.18115234375 236.1464233398438 119.2541580200195 235.4500122070312 115.129753112793 C 234.7536163330078 111.0065536499023 234.4004211425781 106.5679550170898 234.4004211425781 101.9369583129883 C 234.4004211425781 97.30655670166016 234.7536163330078 92.86835479736328 235.4500122070312 88.74555206298828 C 236.1464233398438 84.62135314941406 237.2060241699219 80.69375610351562 238.5998229980469 77.07155609130859 C 241.3876190185547 69.82895660400391 245.1896209716797 63.65875625610352 249.9004211425781 58.73235702514648 C 254.6104125976562 53.80515670776367 260.0610046386719 49.98195648193359 266.1004333496094 47.36815643310547 C 272.138427734375 44.75555419921875 278.4972229003906 43.43075561523438 285.0004272460938 43.43075561523438 C 291.50341796875 43.43075561523438 297.8622131347656 44.75555419921875 303.9004211425781 47.36815643310547 C 309.9394226074219 49.98175430297852 315.3898315429688 53.80495452880859 320.1004333496094 58.73235702514648 C 324.8104248046875 63.65835571289062 328.6122131347656 69.82855224609375 331.3998107910156 77.07155609130859 C 332.7930297851562 80.69015502929688 333.8528137207031 84.61795806884766 334.5498046875 88.74555206298828 C 335.246826171875 92.87295532226562 335.6002197265625 97.31095886230469 335.6002197265625 101.9369583129883 C 335.6002197265625 106.5641555786133 335.246826171875 111.0029525756836 334.5498046875 115.129753112793 C 333.8526306152344 119.2577590942383 332.7928161621094 123.1847534179688 331.3998107910156 126.8019561767578 C 330.0072326660156 130.4225616455078 328.3502197265625 133.8011627197266 326.4750061035156 136.8443603515625 C 324.5988159179688 139.8887481689453 322.4542236328125 142.6805572509766 320.1004333496094 145.1421508789062 C 315.388427734375 150.0699615478516 309.9380187988281 153.8931579589844 303.9004211425781 156.5057525634766 C 297.8624267578125 159.1183624267578 291.50341796875 160.4431610107422 285.0004272460938 160.4431610107422 Z M 285.0004272460938 70.20835876464844 C 281.615234375 70.20835876464844 278.6124267578125 70.92775726318359 276.0750122070312 72.3465576171875 C 273.5370178222656 73.76515197753906 271.3922119140625 75.92275238037109 269.7004089355469 78.75895690917969 C 268.0084228515625 81.59595489501953 266.7214050292969 84.98395538330078 265.8754272460938 88.82915496826172 C 265.0290222167969 92.67635345458984 264.6000061035156 97.08655548095703 264.6000061035156 101.9369583129883 C 264.6000061035156 106.7887573242188 265.0290222167969 111.1991577148438 265.8754272460938 115.0453567504883 C 266.7212219238281 118.8895568847656 268.0082092285156 122.2773590087891 269.7004089355469 125.1147537231445 C 271.3916320800781 127.9513549804688 273.5364074707031 130.1091613769531 276.0750122070312 131.5279541015625 C 278.6128234863281 132.9463500976562 281.6158142089844 133.6655578613281 285.0004272460938 133.6655578613281 C 288.3842163085938 133.6655578613281 291.3868103027344 132.9463500976562 293.9246215820312 131.5279541015625 C 296.4626159667969 130.1099548339844 298.6076049804688 127.9523544311523 300.3004150390625 125.1147537231445 C 301.992431640625 122.2773590087891 303.2794189453125 118.8895568847656 304.1254272460938 115.0453567504883 C 304.9716186523438 111.1991577148438 305.400634765625 106.7887573242188 305.400634765625 101.9369583129883 C 305.400634765625 97.08655548095703 304.9716186523438 92.67635345458984 304.1254272460938 88.82915496826172 C 303.2794189453125 84.98555755615234 301.9926147460938 81.59735870361328 300.3004150390625 78.75895690917969 C 298.6090087890625 75.92335510253906 296.4638061523438 73.76595306396484 293.9246215820312 72.3465576171875 C 291.3874206542969 70.92775726318359 288.3848266601562 70.20835876464844 285.0004272460938 70.20835876464844 Z M 213.0004272460938 157.7439575195312 L 212.9994201660156 157.7439575195312 L 183.6000213623047 157.7429504394531 L 183.6000213623047 93.16095733642578 C 183.6000213623047 89.42715454101562 183.3308258056641 86.1529541015625 182.7998199462891 83.42935180664062 C 182.2698211669922 80.70415496826172 181.4624176025391 78.45155334472656 180.4004211425781 76.73415374755859 C 179.3388214111328 75.01735687255859 177.8414154052734 73.71135711669922 175.9500122070312 72.85235595703125 C 174.0586242675781 71.99375915527344 171.7204132080078 71.55835723876953 169.0002136230469 71.55835723876953 C 165.0204162597656 71.55835723876953 161.4874267578125 72.54275512695312 158.4998168945312 74.48415374755859 C 155.5120239257812 76.42775726318359 152.2486267089844 79.38035583496094 148.8006134033203 83.25995635986328 L 148.8006134033203 157.7429504394531 L 119.4004211425781 157.7429504394531 L 119.4004211425781 0.0001553710899315774 L 148.8006134033203 -4.462890501599759e-05 L 148.8006134033203 38.70475387573242 L 147.2004241943359 60.08235549926758 L 147.7998199462891 60.08235549926758 C 151.5146179199219 55.75395584106445 156.0906219482422 51.85475540161133 161.4006195068359 48.49295425415039 C 164.0546264648438 46.81375503540039 167.0320129394531 45.53655624389648 170.2504272460938 44.69695663452148 C 173.4670257568359 43.85675430297852 177.0164184570312 43.43075561523438 180.8002166748047 43.43075561523438 C 186.3730163574219 43.43075561523438 191.2598266601562 44.45255661010742 195.3252258300781 46.46795654296875 C 199.3896179199219 48.48395538330078 202.7456207275391 51.55035400390625 205.2998199462891 55.5815544128418 C 207.8550262451172 59.61355590820312 209.7982177734375 64.45895385742188 211.0752258300781 69.983154296875 C 212.3526153564453 75.50935363769531 213.0004272460938 81.86895751953125 213.0004272460938 88.88495635986328 L 213.0004272460938 157.7429504394531 L 213.0004272460938 157.7439575195312 Z M 29.40041923522949 157.7429504394531 L 29.3984203338623 157.7429504394531 L 29.3984203338623 157.7419586181641 L 1.972656173165888e-05 157.7429504394531 L 1.972656173165888e-05 11.02695560455322 L 46.20061874389648 11.02695560455322 C 53.23162078857422 11.02695560455322 59.92681884765625 11.82175540924072 66.10061645507812 13.38955497741699 C 72.27201843261719 14.95715522766113 77.72241973876953 17.60715484619141 82.30042266845703 21.26555442810059 C 84.58802032470703 23.09335517883301 86.66561889648438 25.25115585327148 88.47561645507812 27.678955078125 C 90.28262329101562 30.10395622253418 91.87242126464844 32.86735534667969 93.20041656494141 35.8919563293457 C 94.52822113037109 38.9189567565918 95.53742218017578 42.33555603027344 96.20021820068359 46.04695510864258 C 96.86361694335938 49.76135635375977 97.20001983642578 53.87795639038086 97.20001983642578 58.28255462646484 C 97.20001983642578 62.53995513916016 96.85501861572266 66.57115173339844 96.17481994628906 70.26495361328125 C 95.49542236328125 73.95955657958984 94.46102142333984 77.42315673828125 93.10061645507812 80.55915832519531 C 91.73921966552734 83.69675445556641 90.11582183837891 86.59275817871094 88.27581787109375 89.16675567626953 C 86.43302154541016 91.74395751953125 84.32141876220703 94.07195281982422 81.99981689453125 96.08595275878906 C 77.35542297363281 100.1179580688477 71.90482330322266 103.146354675293 65.79981994628906 105.0877532958984 C 59.69562149047852 107.0287551879883 53.10161972045898 108.0127563476562 46.20061874389648 108.0127563476562 L 29.40041923522949 108.0127563476562 L 29.40041923522949 157.7429504394531 Z M 29.40041923522949 37.35475540161133 L 29.40041923522949 81.68515777587891 L 44.40081787109375 81.68495178222656 C 48.38422012329102 81.68495178222656 51.91661834716797 81.19295501708984 54.90002059936523 80.22255706787109 C 57.88462066650391 79.25295257568359 60.40781784057617 77.77655792236328 62.39962005615234 75.83415222167969 C 64.39022064208984 73.89415740966797 65.90422058105469 71.43395233154297 66.89962005615234 68.52175903320312 C 67.89521789550781 65.60895538330078 68.40001678466797 62.16395568847656 68.40001678466797 58.28255462646484 C 68.40001678466797 54.47495651245117 67.88701629638672 51.18175506591797 66.87541961669922 48.49395370483398 C 65.86241912841797 45.80515670776367 64.32282257080078 43.64755630493164 62.29981994628906 42.08075714111328 C 60.27642059326172 40.51275634765625 57.74462127685547 39.32035446166992 54.77481842041016 38.53635406494141 C 51.80461883544922 37.75215530395508 48.3142204284668 37.35475540161133 44.40081787109375 37.35475540161133 L 29.40041923522949 37.35475540161133 Z" stroke="none" fill="rgba(188,76,76,0)"/></g></svg>